<svg version="1.1" id="Ebene_1" xmlns="http://www.w3.org/2000/svg" x="0" y="0" viewBox="0 0 645.3 682.6" style="enable-background:new 0 0 645.3 682.6" xml:space="preserve"><style>.st0{fill:#575d5e}.st2{fill:gray}.st14{fill:#2e2d2c}.st15{fill:#646363}.st17{fill:#fff}</style><path class="st0" d="M311.997 419.47c.319 0 .578.259.578.578v1.156a.578.578 0 0 1-1.156 0v-1.156c0-.319.259-.578.578-.578zm0 4.625c.319 0 .578.259.578.578v1.156a.578.578 0 0 1-1.156 0v-1.156c0-.319.259-.578.578-.578zm0 4.625c.319 0 .578.259.578.578v1.156a.578.578 0 0 1-1.156 0v-1.156c0-.319.259-.578.578-.578zm0 4.626c.319 0 .578.259.578.578v1.156a.578.578 0 0 1-1.156 0v-1.156c0-.319.259-.578.578-.578zm0 4.625c.319 0 .578.259.578.578v1.156a.578.578 0 0 1-1.156 0v-1.156c0-.319.259-.578.578-.578zm0 4.625c.319 0 .578.259.578.578v1.156a.578.578 0 0 1-1.156 0v-1.156c0-.319.259-.578.578-.578zm0 4.625c.319 0 .578.259.578.578v1.156a.578.578 0 0 1-1.156 0v-1.156c0-.319.259-.578.578-.578zm0 4.625c.319 0 .578.259.578.578v1.156a.578.578 0 0 1-1.156 0v-1.156c0-.319.259-.578.578-.578zm0 4.625c.319 0 .578.259.578.578v1.156a.578.578 0 0 1-1.156 0v-1.156c0-.319.259-.578.578-.578zm0 4.626c.319 0 .578.259.578.578v1.156a.578.578 0 0 1-1.156 0v-1.156c0-.32.259-.578.578-.578zm0 4.625c.319 0 .578.259.578.578v1.156a.578.578 0 0 1-1.156 0V466.3c0-.319.259-.578.578-.578zm0 4.625c.319 0 .578.259.578.578v1.156a.578.578 0 0 1-1.156 0v-1.156c0-.319.259-.578.578-.578zm0 4.625c.319 0 .578.259.578.578v1.156a.578.578 0 0 1-1.156 0v-1.156c0-.319.259-.578.578-.578zm0 4.625c.319 0 .578.259.578.578v1.156a.578.578 0 0 1-1.156 0v-1.156c0-.319.259-.578.578-.578zm0 4.625c.319 0 .578.259.578.578v1.156a.578.578 0 0 1-1.156 0V484.8c0-.319.259-.578.578-.578zm0 4.626c.319 0 .578.259.578.578v1.156a.578.578 0 0 1-1.156 0v-1.156c0-.32.259-.578.578-.578zm0 4.625c.319 0 .578.259.578.578v1.156a.578.578 0 0 1-1.156 0v-1.156c0-.319.259-.578.578-.578zm0 4.625c.319 0 .578.259.578.578v1.156a.578.578 0 0 1-1.156 0v-1.156c0-.319.259-.578.578-.578zm0 4.625c.319 0 .578.259.578.578v1.156a.578.578 0 0 1-1.156 0v-1.156c0-.319.259-.578.578-.578zm0 4.625c.319 0 .578.259.578.578v1.156a.578.578 0 0 1-1.156 0v-1.156c0-.319.259-.578.578-.578zm0 4.625c.319 0 .578.259.578.578v1.156a.578.578 0 0 1-1.156 0v-1.156c0-.319.259-.578.578-.578zm0 4.625c.319 0 .578.259.578.578v1.156a.578.578 0 0 1-1.156 0v-1.156c0-.319.259-.578.578-.578zm0 4.626c.319 0 .578.259.578.578v1.156a.578.578 0 0 1-1.156 0v-1.156c0-.32.259-.578.578-.578zm0 4.625c.319 0 .578.259.578.578v1.156a.578.578 0 0 1-1.156 0v-1.156c0-.319.259-.578.578-.578zm0 4.625c.319 0 .578.259.578.578v1.156a.578.578 0 0 1-1.156 0v-1.156c0-.319.259-.578.578-.578z"/><linearGradient id="SVGID_1_" gradientUnits="userSpaceOnUse" x1="158.637" y1="362.698" x2="465.357" y2="362.698"><stop offset="0" style="stop-color:#2eb4e8"/><stop offset=".016" style="stop-color:#2eb3e8"/><stop offset=".55" style="stop-color:#2e93e8"/><stop offset=".992" style="stop-color:#1b50a2;stop-opacity:.9"/></linearGradient><path d="M422.051 278.716H201.944c-23.88 0-43.307 19.427-43.307 43.307v81.351c0 23.191 18.141 42.192 41.3 43.256.73.034 1.387.05 2.007.05h220.107c.62 0 1.277-.016 2.007-.05 23.159-1.064 41.3-20.065 41.3-43.256v-81.351c-.001-23.88-19.428-43.307-43.307-43.307zm26.908 55.396v69.261c0 14.409-11.269 26.215-25.655 26.876a27.43 27.43 0 0 1-1.254.033H201.944c-.421 0-.838-.013-1.254-.033-14.386-.662-25.655-12.467-25.655-26.876v-81.351c0-14.838 12.071-26.909 26.909-26.909h220.107c14.838 0 26.909 12.071 26.909 26.909v12.09z" style="fill:url(#SVGID_1_)"/><path class="st2" d="M445.596 322.022v81.352c0 13.004-10.542 23.545-23.545 23.545H201.944c-13.004 0-23.545-10.542-23.545-23.545v-81.352c0-13.004 10.542-23.545 23.545-23.545H422.05c13.004 0 23.546 10.541 23.546 23.545z"/><linearGradient id="SVGID_00000119095839876758832230000008398196729509152901_" gradientUnits="userSpaceOnUse" x1="177.106" y1="280.098" x2="365.89" y2="91.315" gradientTransform="rotate(180 291.748 274.202)"><stop offset="0" style="stop-color:#ccc"/><stop offset="1" style="stop-color:#fff"/></linearGradient><path style="fill:url(#SVGID_00000119095839876758832230000008398196729509152901_)" d="M448.959 322.022v81.352c0 14.861-12.047 26.909-26.909 26.909H201.944c-14.861 0-26.909-12.047-26.909-26.909v-81.352c0-14.861 12.048-26.909 26.909-26.909H422.05c14.862 0 26.909 12.048 26.909 26.909z"/><radialGradient id="SVGID_00000067228839464378581420000008172426760134484628_" cx="215.73" cy="224.787" r="247.744" gradientTransform="rotate(180 291.748 274.202)" gradientUnits="userSpaceOnUse"><stop offset="0" style="stop-color:#fff"/><stop offset=".32" style="stop-color:#fafafa"/><stop offset=".725" style="stop-color:#eaeaea"/><stop offset="1" style="stop-color:#dbdbdb"/></radialGradient><path style="fill:url(#SVGID_00000067228839464378581420000008172426760134484628_)" d="M422.051 298.477c12.983 0 23.545 10.563 23.545 23.545v81.352c0 12.983-10.562 23.545-23.545 23.545H201.944c-12.983 0-23.545-10.562-23.545-23.545v-81.352c0-12.983 10.562-23.545 23.545-23.545h220.107z"/><path class="st0" d="M436.766 177.516h.735a.578.578 0 0 1 0 1.156h-.735c-.137 0-.274.001-.41.004h-.011a.578.578 0 0 1-.01-1.157c.143-.002.287-.003.431-.003zm4.204 0h1.156a.578.578 0 0 1 0 1.156h-1.156a.578.578 0 0 1 0-1.156zm4.625 0h1.156a.578.578 0 0 1 0 1.156h-1.156a.578.578 0 0 1 0-1.156zm4.625 0h1.156a.578.578 0 0 1 0 1.156h-1.156a.578.578 0 0 1 0-1.156zm-17.325.314a.579.579 0 0 1 .093 1.148c-.372.061-.742.131-1.107.21a.578.578 0 0 1-.244-1.13c.384-.083.772-.156 1.163-.221a.788.788 0 0 1 .095-.007zm-4.463 1.191a.578.578 0 0 1 .203 1.119 23.88 23.88 0 0 0-1.048.423.578.578 0 0 1-.459-1.061c.362-.156.729-.305 1.1-.444a.583.583 0 0 1 .204-.037zm-4.147 2.039a.578.578 0 0 1 .306 1.069c-.32.199-.635.405-.945.618a.577.577 0 1 1-.656-.952c.325-.224.655-.44.991-.649a.58.58 0 0 1 .304-.086zm-3.67 2.803a.577.577 0 0 1 .393 1.001c-.276.256-.545.519-.807.788a.58.58 0 0 1-.828-.808c.276-.282.558-.558.847-.827a.584.584 0 0 1 .395-.154zm-3.06 3.457a.578.578 0 0 1 .468.917c-.22.304-.434.613-.64.928a.578.578 0 0 1-.967-.633c.216-.331.44-.655.671-.974a.575.575 0 0 1 .468-.238zm-2.334 3.979a.578.578 0 0 1 .524.82c-.157.34-.306.684-.447 1.033a.579.579 0 0 1-1.073-.433c.148-.366.304-.727.469-1.085a.583.583 0 0 1 .527-.335zm-1.517 4.358a.579.579 0 0 1 .563.714c-.088.364-.167.731-.237 1.102a.579.579 0 0 1-1.137-.215c.074-.39.157-.776.249-1.158a.579.579 0 0 1 .562-.443zm-.638 4.572.025.001a.578.578 0 0 1 .553.602c-.014.326-.021.654-.021.984v.148a.578.578 0 0 1-1.156 0v-.148c0-.346.007-.69.022-1.033a.577.577 0 0 1 .577-.554zm-.021 4.625c.319 0 .578.259.578.578v1.156a.578.578 0 0 1-1.156 0v-1.156c0-.32.258-.578.578-.578zm0 4.625c.319 0 .578.259.578.578v1.156a.578.578 0 0 1-1.156 0v-1.156c0-.319.258-.578.578-.578zm0 4.625c.319 0 .578.259.578.578v1.156a.578.578 0 0 1-1.156 0v-1.156c0-.319.258-.578.578-.578zm0 4.625c.319 0 .578.259.578.578v1.156a.578.578 0 0 1-1.156 0v-1.156c0-.319.258-.578.578-.578zm0 4.625c.319 0 .578.259.578.578v1.156a.578.578 0 0 1-1.156 0v-1.156c0-.319.258-.578.578-.578zm0 4.625c.319 0 .578.259.578.578v1.156a.578.578 0 0 1-1.156 0v-1.156c0-.319.258-.578.578-.578zm0 4.626c.319 0 .578.259.578.578v1.156a.578.578 0 0 1-1.156 0v-1.156c0-.32.258-.578.578-.578zm0 4.625c.319 0 .578.259.578.578v1.156a.578.578 0 0 1-1.156 0v-1.156c0-.319.258-.578.578-.578zm0 4.625c.319 0 .578.259.578.578v1.156a.578.578 0 0 1-1.156 0v-1.156c0-.319.258-.578.578-.578zm0 4.625c.319 0 .578.259.578.578v1.156a.578.578 0 0 1-1.156 0v-1.156c0-.319.258-.578.578-.578zm0 4.625c.319 0 .578.259.578.578v1.156a.578.578 0 0 1-1.156 0v-1.156c0-.319.258-.578.578-.578zm0 4.625c.319 0 .578.259.578.578v1.156a.578.578 0 0 1-1.156 0v-1.156c0-.319.258-.578.578-.578zm0 4.625c.319 0 .578.259.578.578v1.156a.578.578 0 0 1-1.156 0v-1.156c0-.319.258-.578.578-.578zm0 4.626c.319 0 .578.259.578.578v1.156a.578.578 0 0 1-1.156 0v-1.156c0-.32.258-.578.578-.578zm0 4.625c.319 0 .578.259.578.578v1.156a.578.578 0 0 1-1.156 0v-1.156c0-.319.258-.578.578-.578zm0 4.625c.319 0 .578.259.578.578v1.156a.578.578 0 0 1-1.156 0v-1.156c0-.319.258-.578.578-.578zM172.617 177.516h1.156a.578.578 0 1 1 0 1.156h-1.156a.578.578 0 1 1 0-1.156zm4.625 0h1.156a.578.578 0 1 1 0 1.156h-1.156a.578.578 0 1 1 0-1.156zm4.626 0h1.156a.578.578 0 1 1 0 1.156h-1.156a.578.578 0 1 1 0-1.156zm4.625 0h.735c.144 0 .288.001.431.004a.578.578 0 0 1-.011 1.157h-.011a18.62 18.62 0 0 0-.41-.004h-.735a.578.578 0 1 1 .001-1.157zm4.606.314c.031 0 .063.002.094.008.391.064.779.138 1.164.221a.579.579 0 0 1-.243 1.13 22.55 22.55 0 0 0-1.108-.21.579.579 0 0 1 .093-1.149zm4.463 1.191c.068 0 .136.012.203.037.371.139.738.287 1.1.444a.578.578 0 1 1-.459 1.062 23.88 23.88 0 0 0-1.048-.423.578.578 0 0 1 .204-1.12zm4.147 2.04c.104 0 .209.028.304.087.336.208.666.425.992.648a.578.578 0 1 1-.657.952c-.31-.214-.626-.42-.946-.618a.578.578 0 0 1 .307-1.069zm3.67 2.802c.141 0 .282.051.393.155.289.269.571.544.848.826a.58.58 0 0 1-.826.81 23.1 23.1 0 0 0-.808-.788.578.578 0 0 1 .393-1.003zm3.06 3.456c.179 0 .356.083.469.239.231.318.454.643.671.973a.579.579 0 0 1-.967.635 23.9 23.9 0 0 0-.641-.929.577.577 0 0 1 .468-.918zm2.334 3.98c.218 0 .428.125.526.336.165.357.321.719.469 1.085a.578.578 0 1 1-1.073.432c-.14-.348-.29-.692-.447-1.032a.578.578 0 0 1 .525-.821zm1.517 4.358c.261 0 .498.178.562.443.091.382.175.768.249 1.157a.578.578 0 1 1-1.136.216 23.46 23.46 0 0 0-.238-1.103.577.577 0 0 1 .563-.713zm.639 4.572c.308 0 .564.243.577.554.015.342.022.687.021 1.033v.147a.578.578 0 0 1-1.156 0v-.148c.001-.33-.007-.658-.02-.984a.578.578 0 0 1 .578-.602zm.02 4.625c.32 0 .578.259.578.578v1.156a.578.578 0 0 1-1.156 0v-1.156c0-.32.259-.578.578-.578zm0 4.625c.32 0 .578.259.578.578v1.156a.578.578 0 0 1-1.156 0v-1.156c0-.319.259-.578.578-.578zm0 4.625c.32 0 .578.259.578.578v1.156a.578.578 0 0 1-1.156 0v-1.156c0-.319.259-.578.578-.578zm0 4.625c.32 0 .578.259.578.578v1.156a.578.578 0 0 1-1.156 0v-1.156c0-.319.259-.578.578-.578zm0 4.625c.32 0 .578.259.578.578v1.156a.578.578 0 0 1-1.156 0v-1.156c0-.319.259-.578.578-.578zm0 4.625c.32 0 .578.259.578.578v1.156a.578.578 0 0 1-1.156 0v-1.156c0-.319.259-.578.578-.578zm0 4.626c.32 0 .578.259.578.578v1.156a.578.578 0 0 1-1.156 0v-1.156c0-.32.259-.578.578-.578zm0 4.625c.32 0 .578.259.578.578v1.156a.578.578 0 0 1-1.156 0v-1.156c0-.319.259-.578.578-.578zm0 4.625c.32 0 .578.259.578.578v1.156a.578.578 0 0 1-1.156 0v-1.156c0-.319.259-.578.578-.578zm0 4.625c.32 0 .578.259.578.578v1.156a.578.578 0 0 1-1.156 0v-1.156c0-.319.259-.578.578-.578zm0 4.625c.32 0 .578.259.578.578v1.156a.578.578 0 0 1-1.156 0v-1.156c0-.319.259-.578.578-.578zm0 4.625c.32 0 .578.259.578.578v1.156a.578.578 0 0 1-1.156 0v-1.156c0-.319.259-.578.578-.578zm0 4.625c.32 0 .578.259.578.578v1.156a.578.578 0 0 1-1.156 0v-1.156c0-.319.259-.578.578-.578zm0 4.626c.32 0 .578.259.578.578v1.156a.578.578 0 0 1-1.156 0v-1.156c0-.32.259-.578.578-.578zm0 4.625c.32 0 .578.259.578.578v1.156a.578.578 0 0 1-1.156 0v-1.156c0-.319.259-.578.578-.578zm0 4.625c.32 0 .578.259.578.578v1.156a.578.578 0 0 1-1.156 0v-1.156c0-.319.259-.578.578-.578zM311.997 165.002c.319 0 .578.259.578.578v1.156a.578.578 0 0 1-1.156 0v-1.156c0-.319.259-.578.578-.578zm0 4.625c.319 0 .578.259.578.578v1.156a.578.578 0 0 1-1.156 0v-1.156c0-.319.259-.578.578-.578zm0 4.625c.319 0 .578.259.578.578v1.156a.578.578 0 0 1-1.156 0v-1.156c0-.319.259-.578.578-.578zm0 4.625c.319 0 .578.259.578.578v1.156a.578.578 0 0 1-1.156 0v-1.156c0-.319.259-.578.578-.578zm0 4.625c.319 0 .578.259.578.578v1.156a.578.578 0 0 1-1.156 0v-1.156c0-.319.259-.578.578-.578zm0 4.625c.319 0 .578.259.578.578v1.156a.578.578 0 0 1-1.156 0v-1.156c0-.319.259-.578.578-.578zm0 4.626c.319 0 .578.259.578.578v1.156a.578.578 0 0 1-1.156 0v-1.156c0-.319.259-.578.578-.578zm0 4.625c.319 0 .578.259.578.578v1.156a.578.578 0 0 1-1.156 0v-1.156c0-.319.259-.578.578-.578zm0 4.625c.319 0 .578.259.578.578v1.156a.578.578 0 0 1-1.156 0v-1.156c0-.319.259-.578.578-.578zm0 4.625c.319 0 .578.259.578.578v1.156a.578.578 0 0 1-1.156 0v-1.156c0-.319.259-.578.578-.578zm0 4.625c.319 0 .578.259.578.578v1.156a.578.578 0 0 1-1.156 0v-1.156c0-.319.259-.578.578-.578zm0 4.625c.319 0 .578.259.578.578v1.156a.578.578 0 0 1-1.156 0v-1.156c0-.319.259-.578.578-.578zm0 4.626c.319 0 .578.259.578.578v1.156a.578.578 0 0 1-1.156 0v-1.156c0-.32.259-.578.578-.578zm0 4.625c.319 0 .578.259.578.578v1.156a.578.578 0 0 1-1.156 0v-1.156c0-.319.259-.578.578-.578zm0 4.625c.319 0 .578.259.578.578v1.156a.578.578 0 0 1-1.156 0v-1.156c0-.319.259-.578.578-.578zm0 4.625c.319 0 .578.259.578.578v1.156a.578.578 0 0 1-1.156 0v-1.156c0-.319.259-.578.578-.578zm0 4.625c.319 0 .578.259.578.578v1.156a.578.578 0 0 1-1.156 0v-1.156c0-.319.259-.578.578-.578zm0 4.625c.319 0 .578.259.578.578v1.156a.578.578 0 0 1-1.156 0v-1.156c0-.319.259-.578.578-.578zm0 4.626c.319 0 .578.259.578.578v1.156a.578.578 0 0 1-1.156 0v-1.156c0-.32.259-.578.578-.578zm0 4.625c.319 0 .578.259.578.578v1.156a.578.578 0 0 1-1.156 0v-1.156c0-.319.259-.578.578-.578zm0 4.625c.319 0 .578.259.578.578v1.156a.578.578 0 0 1-1.156 0v-1.156c0-.319.259-.578.578-.578zm0 4.625c.319 0 .578.259.578.578v1.156a.578.578 0 0 1-1.156 0v-1.156c0-.319.259-.578.578-.578zm0 4.625c.319 0 .578.259.578.578v1.156a.578.578 0 0 1-1.156 0v-1.156c0-.319.259-.578.578-.578zm0 4.625c.319 0 .578.259.578.578v1.156a.578.578 0 0 1-1.156 0v-1.156c0-.319.259-.578.578-.578zm0 4.625c.319 0 .578.259.578.578v1.156a.578.578 0 0 1-1.156 0v-1.156c0-.319.259-.578.578-.578z"/><path d="M366.664 10.276c15.579 0 28.253 12.674 28.253 28.253v93.812c0 15.579-12.674 28.253-28.253 28.253H261.289c-15.579 0-28.253-12.674-28.253-28.253V38.529c0-15.579 12.674-28.253 28.253-28.253h105.375z" style="fill:#2eb4e8"/><path class="st2" d="M378.561 38.529v93.811c0 6.571-5.327 11.897-11.897 11.897H261.289c-6.571 0-11.897-5.327-11.897-11.897V38.529c0-6.571 5.327-11.897 11.897-11.897h105.374c6.571 0 11.898 5.326 11.898 11.897z"/><linearGradient id="SVGID_00000122711596612238529420000011441049246191703948_" gradientUnits="userSpaceOnUse" x1="210.108" y1="522.381" x2="328.93" y2="403.559" gradientTransform="rotate(180 291.748 274.202)"><stop offset="0" style="stop-color:#ccc"/><stop offset="1" style="stop-color:#fff"/></linearGradient><path style="fill:url(#SVGID_00000122711596612238529420000011441049246191703948_)" d="M380.26 38.529v93.811c0 7.509-6.087 13.597-13.597 13.597H261.289c-7.509 0-13.597-6.087-13.597-13.597V38.529c0-7.509 6.087-13.597 13.597-13.597h105.374c7.51 0 13.597 6.088 13.597 13.597z"/><radialGradient id="SVGID_00000013888064552184167890000012219992403088173724_" cx="242.559" cy="498.753" r="122.419" gradientTransform="rotate(180 291.748 274.202)" gradientUnits="userSpaceOnUse"><stop offset="0" style="stop-color:#fff"/><stop offset=".32" style="stop-color:#fafafa"/><stop offset=".725" style="stop-color:#eaeaea"/><stop offset="1" style="stop-color:#dbdbdb"/></radialGradient><path style="fill:url(#SVGID_00000013888064552184167890000012219992403088173724_)" d="M366.664 26.632c6.56 0 11.897 5.337 11.897 11.897v93.811c0 6.56-5.337 11.897-11.897 11.897H261.289c-6.56 0-11.897-5.337-11.897-11.897V38.529c0-6.56 5.337-11.897 11.897-11.897h105.375z"/><g><path d="M583.856 104.862c15.579 0 28.253 12.674 28.253 28.253v93.812c0 15.579-12.674 28.253-28.253 28.253H478.482c-15.579 0-28.253-12.674-28.253-28.253v-93.812c0-15.579 12.674-28.253 28.253-28.253h105.374z" style="fill:#2e8ae8"/><path class="st2" d="M596.909 133.501v93.811c0 6.571-5.327 11.897-11.897 11.897H479.638c-6.571 0-11.897-5.327-11.897-11.897v-93.811c0-6.571 5.327-11.897 11.897-11.897h105.374c6.571 0 11.897 5.327 11.897 11.897z"/><linearGradient id="SVGID_00000076561233161887383860000001127681147699424702_" gradientUnits="userSpaceOnUse" x1="-8.241" y1="427.408" x2="110.581" y2="308.587" gradientTransform="rotate(180 291.748 274.202)"><stop offset="0" style="stop-color:#ccc"/><stop offset="1" style="stop-color:#fff"/></linearGradient><path style="fill:url(#SVGID_00000076561233161887383860000001127681147699424702_)" d="M598.609 133.501v93.811c0 7.509-6.087 13.597-13.597 13.597H479.638c-7.509 0-13.597-6.087-13.597-13.597v-93.811c0-7.509 6.087-13.597 13.597-13.597h105.374c7.51 0 13.597 6.088 13.597 13.597z"/><radialGradient id="SVGID_00000007388319646107574330000014278221863994445753_" cx="24.211" cy="403.781" r="122.419" gradientTransform="rotate(180 291.748 274.202)" gradientUnits="userSpaceOnUse"><stop offset="0" style="stop-color:#fff"/><stop offset=".32" style="stop-color:#fafafa"/><stop offset=".725" style="stop-color:#eaeaea"/><stop offset="1" style="stop-color:#dbdbdb"/></radialGradient><path style="fill:url(#SVGID_00000007388319646107574330000014278221863994445753_)" d="M585.012 121.604c6.56 0 11.897 5.337 11.897 11.897v93.811c0 6.56-5.337 11.897-11.897 11.897H479.638c-6.56 0-11.897-5.337-11.897-11.897v-93.811c0-6.56 5.337-11.897 11.897-11.897h105.374z"/></g><g><path d="M143.561 105.633c15.579 0 28.253 12.674 28.253 28.253v93.812c0 15.579-12.674 28.253-28.253 28.253H38.186c-15.579 0-28.253-12.674-28.253-28.253v-93.812c0-15.579 12.674-28.253 28.253-28.253h105.375z" style="fill:#1b50a2"/><path class="st2" d="M155.458 133.887v93.811c0 6.571-5.327 11.897-11.897 11.897H38.186c-6.571 0-11.897-5.326-11.897-11.897v-93.811c0-6.571 5.327-11.897 11.897-11.897H143.56c6.571-.001 11.898 5.326 11.898 11.897z"/><linearGradient id="SVGID_00000023245558116521396560000006307804615662086794_" gradientUnits="userSpaceOnUse" x1="433.211" y1="427.023" x2="552.033" y2="308.202" gradientTransform="rotate(180 291.748 274.202)"><stop offset="0" style="stop-color:#ccc"/><stop offset="1" style="stop-color:#fff"/></linearGradient><path style="fill:url(#SVGID_00000023245558116521396560000006307804615662086794_)" d="M157.157 133.887v93.811c0 7.509-6.087 13.597-13.597 13.597H38.186c-7.509 0-13.597-6.087-13.597-13.597v-93.811c0-7.509 6.087-13.597 13.597-13.597H143.56c7.51 0 13.597 6.087 13.597 13.597z"/><radialGradient id="SVGID_00000161624505432500588180000008400040343174556849_" cx="465.662" cy="403.396" r="122.419" gradientTransform="rotate(180 291.748 274.202)" gradientUnits="userSpaceOnUse"><stop offset="0" style="stop-color:#fff"/><stop offset=".32" style="stop-color:#fafafa"/><stop offset=".725" style="stop-color:#eaeaea"/><stop offset="1" style="stop-color:#dbdbdb"/></radialGradient><path style="fill:url(#SVGID_00000161624505432500588180000008400040343174556849_)" d="M143.561 121.989c6.56 0 11.897 5.337 11.897 11.897v93.811c0 6.56-5.337 11.897-11.897 11.897H38.186c-6.56 0-11.897-5.337-11.897-11.897v-93.811c0-6.56 5.337-11.897 11.897-11.897h105.375z"/></g><g><path class="st14" d="M54.587 167.414h-6.738v7.094H44.94v-16.742h10.636v2.346h-7.727v4.979h6.738v2.323zM56.841 168.173c0-1.219.241-2.317.724-3.294.483-.977 1.161-1.729 2.035-2.254.874-.525 1.878-.788 3.013-.788 1.679 0 3.041.54 4.088 1.621 1.046 1.081 1.612 2.514 1.696 4.301l.012.655c0 1.227-.236 2.323-.707 3.289-.471.966-1.146 1.713-2.024 2.242-.878.529-1.891.794-3.041.794-1.755 0-3.16-.585-4.214-1.754-1.054-1.169-1.581-2.727-1.581-4.674v-.138zm2.794.242c0 1.281.265 2.283.794 3.007.529.724 1.265 1.087 2.208 1.087s1.677-.368 2.202-1.104c.525-.736.788-1.813.788-3.231 0-1.257-.27-2.254-.811-2.99-.54-.736-1.275-1.104-2.202-1.104-.912 0-1.637.362-2.173 1.087-.538.724-.806 1.807-.806 3.248zM77.285 164.62a6.946 6.946 0 0 0-1.138-.092c-1.28 0-2.143.491-2.587 1.472v8.509h-2.794v-12.441h2.667l.069 1.391c.674-1.081 1.61-1.621 2.805-1.621.399 0 .728.054.989.161l-.011 2.621zM81.677 162.068l.08 1.299c.874-1.019 2.07-1.529 3.587-1.529 1.664 0 2.802.636 3.415 1.909.904-1.272 2.177-1.909 3.817-1.909 1.372 0 2.394.379 3.064 1.138.671.759 1.014 1.878 1.029 3.358v8.175h-2.794v-8.095c0-.789-.172-1.368-.517-1.736-.345-.368-.916-.552-1.713-.552-.636 0-1.155.171-1.558.512-.402.341-.684.788-.845 1.339l.012 8.532H86.46v-8.187c-.038-1.464-.786-2.196-2.242-2.196-1.119 0-1.913.456-2.38 1.368v9.015h-2.794v-12.441h2.633zM107.077 173.29c-.82.966-1.985 1.449-3.495 1.449-1.349 0-2.371-.395-3.064-1.185-.694-.789-1.041-1.932-1.041-3.427v-8.06h2.794v8.026c0 1.579.655 2.369 1.966 2.369 1.357 0 2.273-.487 2.748-1.46v-8.934h2.794v12.441h-2.633l-.069-1.219zM115.597 174.509h-2.794v-17.661h2.794v17.661zM126.072 174.509c-.123-.237-.23-.625-.322-1.161-.889.928-1.977 1.391-3.265 1.391-1.25 0-2.269-.357-3.059-1.069-.79-.713-1.184-1.594-1.184-2.645 0-1.326.492-2.344 1.478-3.053.985-.709 2.393-1.063 4.226-1.063h1.713v-.816c0-.644-.18-1.159-.541-1.547-.36-.387-.908-.581-1.644-.581-.637 0-1.158.159-1.564.477-.406.318-.609.722-.609 1.213h-2.794c0-.682.226-1.32.678-1.915.452-.594 1.067-1.06 1.845-1.397.778-.337 1.646-.506 2.604-.506 1.456 0 2.618.366 3.484 1.098.866.732 1.311 1.761 1.334 3.087v5.611c0 1.119.157 2.012.471 2.679v.195h-2.851zm-3.07-2.012c.552 0 1.071-.134 1.558-.403a2.68 2.68 0 0 0 1.098-1.081v-2.346h-1.506c-1.035 0-1.813.18-2.334.541-.521.361-.782.87-.782 1.529 0 .537.178.964.535 1.282.356.319.833.478 1.431.478zM137.892 164.62a6.946 6.946 0 0 0-1.138-.092c-1.28 0-2.143.491-2.587 1.472v8.509h-2.794v-12.441h2.667l.069 1.391c.674-1.081 1.61-1.621 2.805-1.621.399 0 .728.054.989.161l-.011 2.621z"/><path class="st15" d="M44.31 200.382c0-1.51.202-2.96.606-4.35a12.629 12.629 0 0 1 1.81-3.789c.802-1.136 1.634-1.938 2.496-2.406l.381 1.223c-.976.749-1.776 1.891-2.401 3.428-.625 1.537-.967 3.258-1.028 5.163l-.01.852c0 2.58.471 4.818 1.413 6.716.568 1.136 1.243 2.025 2.025 2.667l-.381 1.133c-.889-.495-1.738-1.323-2.546-2.486-1.576-2.273-2.365-4.989-2.365-8.151zM59.737 199.861h-6.125v6.446h-1.925v-14.595h9.042v1.574h-7.117v5.002h6.125v1.573zM67.727 197.124a5.538 5.538 0 0 0-.912-.07c-1.216 0-2.042.518-2.476 1.554v7.699h-1.855v-10.846h1.804l.03 1.253c.608-.969 1.47-1.454 2.586-1.454.361 0 .635.047.822.14v1.724zM68.739 200.783c0-1.063.209-2.018.627-2.867.418-.849.999-1.504 1.744-1.965.745-.461 1.596-.692 2.551-.692 1.477 0 2.672.511 3.584 1.534s1.368 2.382 1.368 4.08v.13c0 1.056-.202 2.003-.606 2.842-.405.839-.982 1.492-1.734 1.96-.752.468-1.616.702-2.591.702-1.47 0-2.661-.511-3.574-1.534-.912-1.022-1.368-2.376-1.368-4.06v-.13zm1.864.221c0 1.203.279 2.169.837 2.897.558.728 1.305 1.092 2.24 1.092.942 0 1.691-.369 2.246-1.108.554-.738.832-1.773.832-3.102 0-1.189-.283-2.153-.847-2.892-.565-.738-1.315-1.108-2.25-1.108-.915 0-1.654.364-2.215 1.093-.562.729-.843 1.771-.843 3.128zM82.693 195.461l.06 1.363c.829-1.043 1.911-1.564 3.248-1.564 2.292 0 3.448 1.293 3.468 3.879v7.167h-1.854v-7.177c-.007-.782-.185-1.36-.536-1.734-.351-.374-.897-.561-1.639-.561-.602 0-1.129.16-1.584.481a3.267 3.267 0 0 0-1.063 1.263v7.729h-1.855v-10.846h1.755zM94.782 192.834v2.626h2.025v1.434h-2.025v6.734c0 .435.09.761.271.979.18.217.488.326.922.326.214 0 .508-.04.882-.12v1.495a5.4 5.4 0 0 1-1.424.199c-.829 0-1.454-.251-1.874-.752-.421-.501-.632-1.213-.632-2.135v-6.726h-1.975v-1.434h1.975v-2.626h1.855zM103.473 206.507c-1.47 0-2.666-.483-3.589-1.448-.922-.965-1.384-2.257-1.384-3.874v-.341c0-1.076.206-2.036.617-2.882.411-.845.986-1.507 1.724-1.985a4.334 4.334 0 0 1 2.401-.717c1.41 0 2.506.464 3.288 1.393s1.173 2.259 1.173 3.99v.772h-7.348c.027 1.069.339 1.933.937 2.591.598.658 1.358.987 2.28.987.655 0 1.21-.134 1.664-.401a4.187 4.187 0 0 0 1.193-1.063l1.133.882c-.908 1.398-2.272 2.096-4.089 2.096zm-.231-9.723a2.47 2.47 0 0 0-1.884.817c-.508.545-.822 1.308-.942 2.291h5.433v-.14c-.054-.942-.307-1.672-.762-2.19-.455-.519-1.07-.778-1.845-.778zM111.602 195.461l.06 1.363c.829-1.043 1.911-1.564 3.248-1.564 2.292 0 3.448 1.293 3.468 3.879v7.167h-1.854v-7.177c-.007-.782-.185-1.36-.536-1.734-.351-.374-.897-.561-1.639-.561-.602 0-1.129.16-1.584.481a3.267 3.267 0 0 0-1.063 1.263v7.729h-1.855v-10.846h1.755zM120.724 200.793c0-1.664.394-3.002 1.183-4.015.789-1.012 1.821-1.518 3.098-1.518 1.269 0 2.276.434 3.017 1.303v-5.654h1.854v15.397h-1.704l-.09-1.163c-.742.909-1.774 1.363-3.097 1.363-1.257 0-2.281-.514-3.073-1.544-.792-1.029-1.188-2.372-1.188-4.03v-.139zm1.855.211c0 1.23.254 2.192.762 2.887.508.695 1.21 1.043 2.105 1.043 1.176 0 2.035-.528 2.576-1.584v-4.982c-.555-1.022-1.407-1.534-2.556-1.534-.909 0-1.617.351-2.125 1.052-.508.702-.762 1.741-.762 3.118zM137.034 200.483c0 1.49-.196 2.919-.586 4.285a12.65 12.65 0 0 1-1.795 3.784c-.805 1.156-1.649 1.978-2.531 2.466l-.391-1.133c1.029-.789 1.856-2.013 2.481-3.674.625-1.661.944-3.504.957-5.529v-.321c0-1.403-.147-2.708-.441-3.914-.294-1.206-.703-2.287-1.228-3.243s-1.115-1.701-1.769-2.235l.391-1.133c.882.488 1.723 1.303 2.521 2.446a12.707 12.707 0 0 1 1.794 3.779c.398 1.378.597 2.851.597 4.422z"/></g><g><path class="st14" d="M213.434 378.726v-30.658h9.054c2.709 0 5.113.604 7.212 1.811 2.098 1.208 3.723 2.92 4.874 5.138 1.151 2.218 1.727 4.759 1.727 7.623v1.537c0 2.906-.579 5.461-1.737 7.665-1.158 2.204-2.808 3.902-4.948 5.095-2.141 1.194-4.594 1.79-7.359 1.79h-8.823zm5.328-26.363v22.109h3.475c2.793 0 4.938-.873 6.433-2.621 1.495-1.747 2.256-4.256 2.285-7.528v-1.705c0-3.327-.723-5.868-2.169-7.623-1.446-1.755-3.545-2.632-6.296-2.632h-3.728zM254.726 378.726c-.225-.435-.421-1.144-.589-2.127-1.629 1.699-3.622 2.548-5.98 2.548-2.288 0-4.155-.653-5.601-1.959-1.446-1.305-2.169-2.92-2.169-4.843 0-2.428.902-4.292 2.706-5.591 1.804-1.298 4.383-1.948 7.738-1.948h3.137v-1.495c0-1.179-.33-2.123-.99-2.832-.66-.709-1.663-1.063-3.011-1.063-1.165 0-2.12.291-2.864.874-.744.583-1.116 1.323-1.116 2.221h-5.117c0-1.249.414-2.418 1.242-3.506s1.955-1.94 3.38-2.559c1.424-.618 3.014-.926 4.769-.926 2.667 0 4.794.671 6.38 2.011 1.586 1.341 2.4 3.225 2.442 5.654v10.275c0 2.05.288 3.685.864 4.906v.358h-5.221zm-5.622-3.685a5.81 5.81 0 0 0 2.853-.737c.891-.491 1.561-1.151 2.011-1.979v-4.295h-2.758c-1.895 0-3.32.33-4.275.99-.955.66-1.432 1.593-1.432 2.8 0 .983.326 1.765.979 2.348.653.582 1.527.873 2.622.873zM270.855 350.405v5.538h4.022v3.79h-4.022v12.718c0 .871.172 1.499.516 1.885.344.386.958.579 1.843.579.589 0 1.186-.07 1.79-.211v3.958c-1.165.323-2.288.484-3.369.484-3.931 0-5.896-2.169-5.896-6.506v-12.908h-3.748v-3.79h3.748v-5.538h5.116zM288.816 379.147c-3.243 0-5.871-1.021-7.886-3.064-2.014-2.043-3.021-4.762-3.021-8.16v-.632c0-2.274.438-4.306 1.316-6.096.877-1.79 2.109-3.183 3.695-4.18 1.586-.996 3.355-1.495 5.306-1.495 3.102 0 5.499.99 7.191 2.969 1.692 1.979 2.537 4.78 2.537 8.401v2.064h-14.887c.154 1.881.783 3.369 1.885 4.464 1.102 1.095 2.488 1.642 4.159 1.642 2.344 0 4.254-.948 5.728-2.843l2.758 2.632c-.913 1.362-2.13 2.418-3.653 3.169-1.524.753-3.233 1.129-5.128 1.129zm-.611-19.519c-1.404 0-2.537.491-3.401 1.474-.863.983-1.414 2.352-1.653 4.106h9.749v-.379c-.113-1.713-.569-3.008-1.369-3.885-.799-.878-1.908-1.316-3.326-1.316zM306.672 355.943l.147 2.632c1.685-2.035 3.895-3.053 6.633-3.053 4.745 0 7.159 2.716 7.243 8.149v15.055h-5.117v-14.761c0-1.445-.313-2.516-.937-3.211-.625-.695-1.646-1.042-3.063-1.042-2.064 0-3.601.934-4.611 2.8v16.213h-5.117v-22.783h4.822zM345.9 367.566c0 3.537-.789 6.352-2.368 8.444-1.579 2.092-3.752 3.137-6.517 3.137-2.667 0-4.745-.962-6.233-2.885l-.253 2.463h-4.632v-32.343h5.117v11.75c1.474-1.741 3.46-2.611 5.959-2.611 2.78 0 4.962 1.032 6.548 3.096 1.587 2.063 2.379 4.948 2.379 8.654v.295zm-5.117-.442c0-2.471-.435-4.324-1.306-5.559-.871-1.235-2.134-1.853-3.79-1.853-2.218 0-3.776.968-4.675 2.906v9.391c.912 1.979 2.485 2.969 4.717 2.969 1.6 0 2.835-.597 3.706-1.79.87-1.192 1.319-2.997 1.348-5.411v-.653zM363.798 378.726c-.225-.435-.421-1.144-.589-2.127-1.629 1.699-3.622 2.548-5.98 2.548-2.288 0-4.155-.653-5.601-1.959-1.446-1.305-2.169-2.92-2.169-4.843 0-2.428.902-4.292 2.706-5.591 1.803-1.298 4.383-1.948 7.738-1.948h3.137v-1.495c0-1.179-.33-2.123-.99-2.832-.66-.709-1.664-1.063-3.011-1.063-1.165 0-2.12.291-2.864.874-.745.583-1.116 1.323-1.116 2.221h-5.117c0-1.249.414-2.418 1.243-3.506.828-1.088 1.955-1.94 3.379-2.559 1.425-.618 3.014-.926 4.77-.926 2.667 0 4.793.671 6.38 2.011 1.586 1.341 2.401 3.225 2.442 5.654v10.275c0 2.05.288 3.685.863 4.906v.358h-5.221zm-5.622-3.685a5.813 5.813 0 0 0 2.853-.737c.891-.491 1.562-1.151 2.011-1.979v-4.295h-2.759c-1.895 0-3.32.33-4.275.99-.955.66-1.432 1.593-1.432 2.8 0 .983.326 1.765.979 2.348.654.582 1.528.873 2.623.873zM378.263 355.943l.147 2.632c1.685-2.035 3.896-3.053 6.633-3.053 4.745 0 7.159 2.716 7.243 8.149v15.055h-5.116v-14.761c0-1.445-.313-2.516-.937-3.211-.624-.695-1.646-1.042-3.063-1.042-2.064 0-3.601.934-4.612 2.8v16.213h-5.116v-22.783h4.821zM404.9 368.955l-2.274 2.337v7.433h-5.116v-32.343h5.116v18.656l1.601-2 6.296-7.096h6.148l-8.464 9.496 9.37 13.287h-5.917l-6.76-9.77z"/></g><g><path class="st14" d="m271.528 49.076 4.829 12.832 4.818-12.832h3.76v16.742h-2.897v-5.519l.287-7.382-4.944 12.901H275.3l-4.933-12.89.288 7.37v5.519h-2.898V49.076h3.771zM295.536 65.818c-.123-.237-.23-.625-.322-1.161-.889.928-1.978 1.391-3.265 1.391-1.25 0-2.269-.357-3.059-1.069-.79-.713-1.184-1.594-1.184-2.645 0-1.326.492-2.344 1.478-3.053.985-.709 2.393-1.063 4.226-1.063h1.713v-.816c0-.644-.18-1.159-.541-1.547-.361-.387-.908-.581-1.644-.581-.637 0-1.158.159-1.564.477-.406.318-.609.722-.609 1.213h-2.794c0-.682.226-1.32.678-1.915.452-.594 1.067-1.06 1.845-1.397.778-.337 1.646-.506 2.604-.506 1.456 0 2.618.366 3.484 1.098.866.732 1.311 1.761 1.334 3.087v5.611c0 1.119.157 2.012.471 2.679v.195h-2.851zm-3.07-2.013c.552 0 1.071-.134 1.558-.403a2.68 2.68 0 0 0 1.098-1.081v-2.346h-1.506c-1.035 0-1.813.18-2.334.541-.521.36-.782.87-.782 1.529 0 .537.178.964.535 1.282.356.319.833.478 1.431.478zM303.436 53.376l.08 1.437c.92-1.111 2.127-1.667 3.622-1.667 2.591 0 3.91 1.483 3.956 4.45v8.221H308.3v-8.06c0-.789-.171-1.374-.512-1.753-.341-.379-.899-.569-1.673-.569-1.127 0-1.966.51-2.518 1.529v8.854h-2.794V53.376h2.633zM321.476 64.599c-.82.966-1.985 1.449-3.495 1.449-1.349 0-2.371-.395-3.064-1.185-.694-.789-1.041-1.932-1.041-3.427v-8.06h2.794v8.026c0 1.579.655 2.369 1.966 2.369 1.357 0 2.273-.487 2.748-1.46v-8.934h2.794v12.441h-2.633l-.069-1.219zM332.504 66.048c-1.771 0-3.206-.558-4.306-1.673s-1.65-2.6-1.65-4.455v-.345c0-1.242.239-2.352.718-3.329.479-.977 1.152-1.738 2.018-2.282.866-.544 1.832-.816 2.898-.816 1.694 0 3.003.54 3.927 1.621.924 1.081 1.386 2.61 1.386 4.588v1.127h-8.129c.084 1.027.427 1.84 1.029 2.438.602.598 1.359.897 2.271.897 1.28 0 2.323-.517 3.128-1.552l1.506 1.437a5.02 5.02 0 0 1-1.995 1.73c-.834.408-1.767.614-2.801.614zm-.334-10.659c-.766 0-1.385.268-1.857.805s-.772 1.284-.902 2.242h5.324v-.207c-.061-.935-.31-1.642-.747-2.121-.438-.48-1.044-.719-1.818-.719zM342.633 65.818h-2.794V48.156h2.794v17.662zM348.647 65.818h-2.794V48.156h2.794v17.662zM357.168 66.048c-1.771 0-3.206-.558-4.306-1.673s-1.65-2.6-1.65-4.455v-.345c0-1.242.239-2.352.718-3.329.479-.977 1.152-1.738 2.018-2.282.866-.544 1.832-.816 2.897-.816 1.694 0 3.003.54 3.927 1.621.924 1.081 1.386 2.61 1.386 4.588v1.127h-8.129c.084 1.027.427 1.84 1.029 2.438.602.598 1.359.897 2.271.897 1.28 0 2.323-.517 3.128-1.552l1.506 1.437a5.02 5.02 0 0 1-1.995 1.73c-.833.408-1.766.614-2.8.614zm-.334-10.659c-.766 0-1.386.268-1.857.805s-.772 1.284-.902 2.242h5.324v-.207c-.061-.935-.31-1.642-.747-2.121-.438-.48-1.044-.719-1.818-.719zM283.756 84.36h-6.876v5.151h8.037v2.323h-10.946V75.092h10.866v2.346h-7.957v4.622h6.876v2.3zM287.022 76.162c0-.429.136-.786.408-1.069.272-.283.661-.425 1.167-.425s.897.142 1.173.425c.276.284.414.64.414 1.069 0 .422-.138.772-.414 1.052-.276.28-.667.42-1.173.42s-.895-.14-1.167-.42c-.272-.28-.408-.63-.408-1.052zm2.966 15.672h-2.794V79.393h2.794v12.441zM295.623 79.393l.08 1.437c.92-1.111 2.127-1.667 3.622-1.667 2.591 0 3.91 1.483 3.956 4.45v8.221h-2.794v-8.06c0-.789-.171-1.374-.512-1.753-.341-.379-.899-.569-1.673-.569-1.127 0-1.966.51-2.518 1.529v8.854h-2.794V79.393h2.633zM305.638 85.521c0-1.931.454-3.474 1.363-4.628.908-1.153 2.114-1.73 3.616-1.73 1.418 0 2.533.495 3.346 1.483l.127-1.253h2.518v12.062c0 1.633-.508 2.921-1.524 3.864-1.016.943-2.386 1.414-4.111 1.414-.912 0-1.803-.19-2.673-.569-.87-.379-1.531-.876-1.983-1.489l1.322-1.679c.858 1.019 1.916 1.529 3.174 1.529.927 0 1.66-.251 2.196-.753.536-.502.805-1.24.805-2.213v-.839c-.805.897-1.878 1.345-3.22 1.345-1.456 0-2.647-.579-3.57-1.736-.925-1.159-1.386-2.761-1.386-4.808zm2.782.242c0 1.249.255 2.233.765 2.949.51.717 1.217 1.075 2.121 1.075 1.127 0 1.962-.483 2.507-1.449v-5.473c-.529-.943-1.357-1.414-2.484-1.414-.92 0-1.635.364-2.144 1.092-.51.729-.765 1.802-.765 3.22zM326.91 91.834c-.123-.237-.23-.625-.322-1.161-.889.928-1.977 1.391-3.265 1.391-1.25 0-2.269-.357-3.059-1.069-.79-.713-1.184-1.594-1.184-2.645 0-1.326.492-2.344 1.478-3.053.985-.709 2.393-1.063 4.226-1.063h1.713v-.816c0-.644-.18-1.159-.541-1.547-.361-.387-.908-.581-1.644-.581-.637 0-1.158.159-1.564.477-.406.318-.609.722-.609 1.213h-2.794c0-.682.226-1.32.678-1.915.452-.594 1.067-1.06 1.845-1.397.778-.337 1.646-.506 2.604-.506 1.456 0 2.618.366 3.484 1.098.866.732 1.311 1.761 1.334 3.087v5.611c0 1.119.157 2.012.471 2.679v.195h-2.851zm-3.07-2.012c.552 0 1.071-.134 1.558-.403a2.68 2.68 0 0 0 1.098-1.081v-2.346h-1.506c-1.035 0-1.813.18-2.334.541-.521.36-.782.87-.782 1.529 0 .537.178.964.535 1.282.355.319.833.478 1.431.478zM343.134 85.74c0 1.932-.431 3.469-1.293 4.611s-2.049 1.713-3.559 1.713c-1.457 0-2.591-.525-3.404-1.576l-.138 1.345h-2.53v-17.66h2.794v6.416c.805-.951 1.89-1.426 3.254-1.426 1.518 0 2.71.563 3.576 1.69.866 1.127 1.299 2.702 1.299 4.726v.161zm-2.794-.241c0-1.349-.238-2.361-.713-3.036-.475-.674-1.165-1.012-2.07-1.012-1.211 0-2.062.529-2.553 1.587v5.128c.498 1.081 1.357 1.621 2.576 1.621.874 0 1.548-.326 2.024-.977.475-.652.72-1.637.736-2.955v-.356zM350.953 92.064c-1.771 0-3.206-.558-4.306-1.673s-1.65-2.6-1.65-4.455v-.345c0-1.242.239-2.352.718-3.329s1.152-1.738 2.018-2.282c.866-.544 1.832-.816 2.898-.816 1.694 0 3.003.54 3.927 1.621.924 1.081 1.386 2.61 1.386 4.588V86.5h-8.129c.084 1.027.427 1.84 1.029 2.438.602.598 1.359.897 2.271.897 1.28 0 2.323-.517 3.128-1.552l1.506 1.437a5.02 5.02 0 0 1-1.995 1.73c-.833.409-1.767.614-2.801.614zm-.334-10.659c-.766 0-1.385.268-1.857.805-.471.537-.772 1.284-.903 2.242h5.324v-.207c-.061-.935-.31-1.642-.747-2.121-.437-.479-1.043-.719-1.817-.719z"/><path class="st15" d="M269.39 117.708c0-1.51.202-2.96.606-4.35a12.629 12.629 0 0 1 1.81-3.789c.802-1.136 1.634-1.938 2.496-2.406l.381 1.223c-.976.749-1.776 1.891-2.401 3.428-.625 1.537-.967 3.258-1.028 5.163l-.01.852c0 2.58.471 4.818 1.413 6.716.568 1.136 1.243 2.025 2.025 2.667l-.381 1.133c-.889-.495-1.738-1.323-2.546-2.486-1.576-2.274-2.365-4.99-2.365-8.151zM276.768 123.632v-14.595h4.772c1.584 0 2.775.328 3.574.982.798.655 1.198 1.624 1.198 2.907a2.96 2.96 0 0 1-.582 1.809c-.388.525-.915.931-1.584 1.218.788.22 1.412.64 1.869 1.258.458.618.687 1.355.687 2.21 0 1.31-.425 2.339-1.273 3.087-.849.749-2.048 1.123-3.599 1.123h-5.062zm1.925-8.37h2.907c.842 0 1.515-.211 2.02-.633.504-.422.757-.995.757-1.718 0-.804-.234-1.388-.702-1.753-.468-.365-1.179-.548-2.135-.548h-2.847v4.652zm0 1.544v5.253h3.178c.895 0 1.602-.232 2.12-.697.518-.464.777-1.104.777-1.92 0-1.758-.956-2.636-2.867-2.636h-3.208zM295.955 123.632c-.107-.214-.194-.595-.261-1.143-.862.895-1.891 1.343-3.087 1.343-1.069 0-1.946-.302-2.631-.907-.685-.605-1.027-1.372-1.027-2.301 0-1.129.429-2.006 1.288-2.631s2.067-.937 3.624-.937h1.804v-.852c0-.648-.194-1.164-.582-1.549-.388-.384-.959-.576-1.714-.576-.661 0-1.216.167-1.664.501-.448.334-.672.738-.672 1.213h-1.864c0-.541.192-1.064.576-1.569.384-.504.905-.904 1.564-1.198a5.261 5.261 0 0 1 2.17-.441c1.249 0 2.228.312 2.937.937.708.625 1.076 1.485 1.103 2.581v4.992c0 .996.127 1.788.381 2.376v.16h-1.945zm-3.078-1.413c.582 0 1.133-.15 1.654-.451.521-.301.899-.692 1.133-1.173v-2.225h-1.454c-2.272 0-3.408.665-3.408 1.995 0 .581.194 1.036.581 1.363.388.327.886.491 1.494.491zM304.775 122.319c.662 0 1.24-.2 1.734-.601.494-.401.768-.902.822-1.504h1.754c-.033.622-.247 1.213-.641 1.774a4.227 4.227 0 0 1-1.579 1.343 4.556 4.556 0 0 1-2.09.501c-1.477 0-2.651-.493-3.523-1.478-.872-.986-1.308-2.334-1.308-4.045v-.311c0-1.056.194-1.995.581-2.817.388-.822.944-1.46 1.669-1.915.725-.454 1.582-.681 2.571-.681 1.216 0 2.227.364 3.032 1.092.805.729 1.235 1.674 1.288 2.837h-1.754c-.053-.702-.319-1.278-.797-1.729-.478-.451-1.067-.677-1.769-.677-.942 0-1.673.339-2.19 1.017-.518.678-.777 1.659-.777 2.942v.351c0 1.25.257 2.212.772 2.887.515.676 1.25 1.014 2.205 1.014zM314.198 118.61l-1.163 1.213v3.809h-1.854v-15.397h1.854v9.312l.992-1.193 3.378-3.569h2.256l-4.22 4.531 4.712 6.315h-2.175l-3.78-5.021zM325.877 123.832c-1.47 0-2.666-.483-3.589-1.448-.922-.965-1.384-2.257-1.384-3.874v-.341c0-1.076.206-2.036.617-2.882.411-.845.986-1.507 1.724-1.985a4.334 4.334 0 0 1 2.401-.717c1.41 0 2.506.464 3.288 1.393s1.173 2.259 1.173 3.99v.772h-7.348c.027 1.069.339 1.933.937 2.591.598.658 1.358.987 2.28.987.655 0 1.21-.134 1.664-.401a4.187 4.187 0 0 0 1.193-1.063l1.133.882c-.908 1.398-2.272 2.096-4.089 2.096zm-.231-9.723a2.47 2.47 0 0 0-1.884.817c-.508.545-.822 1.308-.942 2.291h5.433v-.14c-.054-.942-.307-1.672-.762-2.19-.455-.519-1.07-.778-1.845-.778zM334.006 112.786l.06 1.363c.829-1.043 1.911-1.564 3.248-1.564 2.292 0 3.448 1.293 3.468 3.879v7.167h-1.854v-7.177c-.007-.782-.185-1.36-.536-1.734-.351-.374-.897-.561-1.639-.561-.602 0-1.129.16-1.584.481a3.267 3.267 0 0 0-1.063 1.263v7.729h-1.855v-10.846h1.755zM343.128 118.119c0-1.664.394-3.002 1.183-4.015.789-1.012 1.821-1.518 3.098-1.518 1.27 0 2.276.434 3.017 1.303v-5.654h1.854v15.397h-1.704l-.09-1.163c-.742.909-1.774 1.363-3.097 1.363-1.257 0-2.281-.514-3.073-1.544-.792-1.029-1.188-2.372-1.188-4.03v-.139zm1.855.21c0 1.23.254 2.192.762 2.887.508.695 1.21 1.043 2.105 1.043 1.176 0 2.035-.528 2.576-1.584v-4.982c-.555-1.022-1.407-1.534-2.556-1.534-.909 0-1.617.351-2.125 1.052s-.762 1.742-.762 3.118zM359.438 117.808c0 1.49-.196 2.919-.586 4.285a12.65 12.65 0 0 1-1.795 3.784c-.805 1.156-1.649 1.978-2.531 2.466l-.391-1.133c1.029-.789 1.856-2.013 2.481-3.674.625-1.661.944-3.504.957-5.529v-.321c0-1.403-.147-2.708-.441-3.914-.294-1.206-.703-2.287-1.228-3.243s-1.115-1.701-1.769-2.235l.391-1.133c.882.488 1.723 1.303 2.521 2.446a12.707 12.707 0 0 1 1.794 3.779c.398 1.378.597 2.852.597 4.422z"/></g><g><path class="st14" d="M481.2 165.644h-2.898v-16.742h2.898v16.742zM486.661 153.203l.08 1.299c.874-1.019 2.07-1.529 3.587-1.529 1.664 0 2.802.636 3.415 1.909.904-1.272 2.177-1.909 3.817-1.909 1.372 0 2.394.379 3.064 1.138.671.759 1.014 1.878 1.029 3.358v8.175h-2.794v-8.095c0-.789-.172-1.368-.517-1.736-.345-.368-.916-.552-1.713-.552-.636 0-1.155.171-1.558.512-.402.341-.684.788-.845 1.339l.012 8.532h-2.794v-8.187c-.038-1.464-.786-2.196-2.242-2.196-1.119 0-1.913.456-2.38 1.368v9.015h-2.794v-12.441h2.633zM514.948 159.55c0 1.924-.437 3.459-1.311 4.605-.874 1.146-2.047 1.719-3.519 1.719-1.365 0-2.457-.449-3.277-1.345v5.899h-2.794v-17.224h2.576l.115 1.265c.82-.996 1.935-1.495 3.346-1.495 1.518 0 2.708.565 3.57 1.696.862 1.131 1.293 2.7 1.293 4.708v.172zm-2.783-.242c0-1.242-.247-2.227-.742-2.955-.495-.728-1.202-1.092-2.121-1.092-1.142 0-1.963.471-2.461 1.414v5.519c.506.966 1.334 1.449 2.484 1.449.889 0 1.585-.358 2.087-1.075.502-.717.753-1.803.753-3.26zM516.317 159.308c0-1.219.241-2.317.724-3.294.483-.977 1.161-1.729 2.035-2.254.874-.525 1.878-.788 3.013-.788 1.679 0 3.041.54 4.088 1.621 1.046 1.081 1.612 2.514 1.696 4.301l.012.655c0 1.227-.236 2.323-.707 3.289-.471.966-1.146 1.713-2.024 2.242-.878.529-1.891.794-3.041.794-1.755 0-3.16-.585-4.214-1.754-1.054-1.169-1.581-2.727-1.581-4.674v-.138zm2.794.242c0 1.281.265 2.283.794 3.007.529.724 1.265 1.087 2.208 1.087s1.677-.368 2.202-1.104c.525-.736.788-1.813.788-3.231 0-1.257-.27-2.254-.811-2.99-.54-.736-1.275-1.104-2.202-1.104-.912 0-1.637.362-2.173 1.087-.538.724-.806 1.807-.806 3.248zM536.29 155.755a6.946 6.946 0 0 0-1.138-.092c-1.28 0-2.143.491-2.587 1.472v8.509h-2.794v-12.441h2.667l.069 1.391c.674-1.081 1.61-1.621 2.805-1.621.399 0 .728.054.989.161l-.011 2.621zM541.66 150.178v3.024h2.196v2.07h-2.196v6.945c0 .475.094.818.282 1.029.188.211.523.316 1.006.316.322 0 .648-.038.977-.115v2.162a6.897 6.897 0 0 1-1.84.265c-2.147 0-3.22-1.185-3.22-3.553v-7.049h-2.047v-2.07h2.047v-3.024h2.795zM558.345 165.644c-.123-.237-.23-.625-.322-1.161-.889.928-1.977 1.391-3.265 1.391-1.25 0-2.269-.357-3.059-1.069-.79-.713-1.184-1.594-1.184-2.645 0-1.326.492-2.344 1.478-3.053.985-.709 2.393-1.063 4.226-1.063h1.713v-.816c0-.644-.18-1.159-.541-1.547-.36-.387-.908-.581-1.644-.581-.637 0-1.158.159-1.564.477-.406.318-.609.722-.609 1.213h-2.794c0-.682.226-1.32.678-1.915.452-.594 1.067-1.06 1.845-1.397.778-.337 1.646-.506 2.604-.506 1.456 0 2.618.366 3.484 1.098.866.732 1.311 1.761 1.334 3.087v5.611c0 1.119.157 2.012.471 2.679v.195h-2.851zm-3.07-2.012c.552 0 1.071-.134 1.558-.403a2.68 2.68 0 0 0 1.098-1.081v-2.346h-1.506c-1.035 0-1.813.18-2.334.541-.521.361-.782.87-.782 1.529 0 .537.178.964.535 1.282.356.319.833.478 1.431.478zM570.718 164.425c-.82.966-1.985 1.449-3.495 1.449-1.349 0-2.371-.395-3.064-1.185-.694-.789-1.041-1.932-1.041-3.427v-8.06h2.794v8.026c0 1.579.655 2.369 1.966 2.369 1.357 0 2.273-.487 2.748-1.46v-8.934h2.794v12.441h-2.633l-.069-1.219zM582.769 162.263c0-.498-.205-.878-.615-1.138-.41-.261-1.091-.491-2.041-.69-.951-.199-1.744-.452-2.38-.759-1.395-.674-2.093-1.652-2.093-2.932 0-1.073.452-1.97 1.357-2.691.904-.72 2.054-1.081 3.45-1.081 1.487 0 2.689.368 3.605 1.104.916.736 1.374 1.69 1.374 2.863h-2.794c0-.536-.2-.983-.598-1.339-.399-.357-.928-.535-1.587-.535-.613 0-1.114.142-1.501.425-.387.284-.58.663-.58 1.139 0 .429.18.763.54 1 .36.238 1.088.477 2.185.719 1.096.241 1.957.529 2.581.862.625.333 1.089.734 1.391 1.201.303.468.454 1.035.454 1.702 0 1.119-.464 2.026-1.391 2.719-.928.694-2.143 1.041-3.645 1.041-1.02 0-1.928-.184-2.725-.552-.797-.368-1.418-.874-1.863-1.518a3.59 3.59 0 0 1-.667-2.081h2.713c.038.659.288 1.167.747 1.524.46.356 1.069.535 1.828.535.736 0 1.295-.14 1.679-.42s.576-.645.576-1.098zM498.971 191.66c-.123-.237-.23-.625-.322-1.161-.889.928-1.977 1.391-3.265 1.391-1.25 0-2.269-.357-3.059-1.069-.79-.713-1.184-1.594-1.184-2.645 0-1.326.492-2.344 1.478-3.053.985-.709 2.393-1.063 4.226-1.063h1.713v-.816c0-.644-.18-1.159-.541-1.547-.361-.387-.908-.581-1.644-.581-.637 0-1.158.159-1.564.477s-.609.722-.609 1.213h-2.794c0-.682.226-1.32.678-1.915.452-.594 1.067-1.06 1.845-1.397.778-.337 1.646-.506 2.604-.506 1.456 0 2.618.366 3.484 1.098.866.732 1.311 1.761 1.334 3.087v5.611c0 1.119.157 2.012.471 2.679v.195h-2.851zm-3.07-2.012c.552 0 1.071-.134 1.558-.403a2.68 2.68 0 0 0 1.098-1.081v-2.346h-1.506c-1.035 0-1.813.18-2.334.541-.521.36-.782.87-.782 1.529 0 .537.178.964.535 1.282.356.319.833.478 1.431.478zM506.399 179.219l.08 1.437c.92-1.111 2.127-1.667 3.622-1.667 2.591 0 3.91 1.483 3.956 4.45v8.221h-2.794v-8.06c0-.789-.171-1.374-.512-1.753-.341-.379-.899-.569-1.673-.569-1.127 0-1.966.51-2.518 1.529v8.854h-2.794V179.22h2.633zM515.909 185.348c0-1.916.444-3.455 1.334-4.616.889-1.161 2.081-1.742 3.576-1.742 1.318 0 2.384.46 3.196 1.38V174h2.794v17.661h-2.53l-.138-1.288c-.836 1.012-1.951 1.518-3.346 1.518-1.457 0-2.635-.587-3.536-1.759-.9-1.174-1.35-2.768-1.35-4.784zm2.794.241c0 1.265.243 2.252.73 2.961.487.709 1.179 1.064 2.075 1.064 1.142 0 1.978-.51 2.506-1.529v-5.312c-.513-.997-1.341-1.495-2.484-1.495-.904 0-1.602.358-2.093 1.075-.489.716-.734 1.795-.734 3.236zM534.732 191.89c-1.771 0-3.206-.558-4.306-1.673s-1.65-2.6-1.65-4.455v-.345c0-1.242.239-2.352.718-3.329.479-.977 1.152-1.738 2.018-2.282.866-.544 1.832-.816 2.898-.816 1.694 0 3.003.54 3.927 1.621.924 1.081 1.386 2.61 1.386 4.588v1.127h-8.129c.084 1.027.427 1.84 1.029 2.438.602.598 1.359.897 2.271.897 1.28 0 2.323-.517 3.128-1.552l1.506 1.437a5.02 5.02 0 0 1-1.995 1.73c-.833.409-1.766.614-2.801.614zm-.333-10.659c-.766 0-1.385.268-1.857.805s-.772 1.284-.903 2.242h5.324v-.207c-.061-.935-.31-1.642-.747-2.121-.437-.479-1.043-.719-1.817-.719zM547.933 181.772a6.946 6.946 0 0 0-1.138-.092c-1.28 0-2.143.491-2.587 1.472v8.509h-2.794V179.22h2.667l.069 1.391c.674-1.081 1.61-1.621 2.805-1.621.399 0 .728.054.989.161l-.011 2.621zM554.487 191.89c-1.771 0-3.206-.558-4.306-1.673s-1.65-2.6-1.65-4.455v-.345c0-1.242.239-2.352.718-3.329.479-.977 1.152-1.738 2.018-2.282.866-.544 1.832-.816 2.897-.816 1.694 0 3.003.54 3.927 1.621.924 1.081 1.386 2.61 1.386 4.588v1.127h-8.129c.084 1.027.427 1.84 1.029 2.438.602.598 1.359.897 2.271.897 1.28 0 2.323-.517 3.128-1.552l1.506 1.437a5.02 5.02 0 0 1-1.995 1.73c-.832.409-1.765.614-2.8.614zm-.333-10.659c-.766 0-1.386.268-1.857.805s-.772 1.284-.902 2.242h5.324v-.207c-.061-.935-.31-1.642-.747-2.121-.438-.479-1.044-.719-1.818-.719zM563.767 179.219l.08 1.437c.92-1.111 2.127-1.667 3.622-1.667 2.591 0 3.91 1.483 3.956 4.45v8.221h-2.794v-8.06c0-.789-.171-1.374-.512-1.753-.341-.379-.899-.569-1.673-.569-1.127 0-1.966.51-2.518 1.529v8.854h-2.794V179.22h2.633zM510.717 209.743c0 1.587-.251 2.961-.753 4.122s-1.206 2.083-2.11 2.765l2.875 2.242-1.886 1.702-3.565-2.817c-.467.1-.97.15-1.506.15-1.349 0-2.555-.332-3.616-.995-1.062-.663-1.882-1.608-2.461-2.834s-.872-2.641-.88-4.243v-.943c0-1.633.289-3.074.868-4.323.579-1.249 1.395-2.206 2.449-2.869 1.054-.663 2.259-.995 3.616-.995 1.38 0 2.597.327 3.651.983 1.054.655 1.869 1.598 2.444 2.829.575 1.23.866 2.662.874 4.295v.931zm-2.921-.874c0-1.886-.353-3.315-1.058-4.289-.705-.973-1.702-1.46-2.99-1.46-1.249 0-2.229.493-2.938 1.478-.709.985-1.071 2.374-1.087 4.168v.977c0 1.809.355 3.224 1.064 4.243.709 1.02 1.703 1.529 2.984 1.529 1.295 0 2.29-.491 2.984-1.472s1.041-2.415 1.041-4.301v-.873zM520.468 216.458c-.82.966-1.985 1.449-3.495 1.449-1.349 0-2.371-.395-3.064-1.185-.694-.789-1.041-1.932-1.041-3.427v-8.06h2.794v8.026c0 1.579.655 2.369 1.966 2.369 1.357 0 2.273-.487 2.748-1.46v-8.934h2.794v12.441h-2.633l-.069-1.219zM531.024 217.907c-1.771 0-3.206-.558-4.306-1.673s-1.65-2.6-1.65-4.456v-.345c0-1.242.239-2.352.718-3.329s1.152-1.738 2.018-2.282c.866-.544 1.832-.816 2.898-.816 1.694 0 3.003.54 3.927 1.621.924 1.081 1.385 2.61 1.385 4.588v1.127h-8.129c.084 1.027.427 1.84 1.029 2.438.602.598 1.359.897 2.271.897 1.28 0 2.323-.517 3.128-1.552l1.506 1.437a5.02 5.02 0 0 1-1.995 1.73c-.832.41-1.765.615-2.8.615zm-.334-10.659c-.766 0-1.385.268-1.857.805-.471.537-.772 1.284-.903 2.242h5.324v-.207c-.061-.935-.31-1.642-.747-2.121-.437-.479-1.042-.719-1.817-.719zM540.683 217.677h-2.794v-17.661h2.794v17.661zM546.225 217.677h-2.794v-17.661h2.794v17.661zM554.275 217.907c-1.771 0-3.206-.558-4.306-1.673s-1.65-2.6-1.65-4.456v-.345c0-1.242.239-2.352.718-3.329s1.152-1.738 2.018-2.282c.866-.544 1.832-.816 2.898-.816 1.694 0 3.003.54 3.927 1.621.924 1.081 1.385 2.61 1.385 4.588v1.127h-8.129c.084 1.027.427 1.84 1.029 2.438.602.598 1.359.897 2.271.897 1.28 0 2.323-.517 3.128-1.552l1.506 1.437a5.02 5.02 0 0 1-1.995 1.73c-.832.41-1.766.615-2.8.615zm-.334-10.659c-.766 0-1.385.268-1.857.805-.471.537-.772 1.284-.903 2.242h5.324v-.207c-.061-.935-.31-1.642-.747-2.121-.437-.479-1.043-.719-1.817-.719zM563.554 205.236l.08 1.437c.92-1.111 2.127-1.667 3.622-1.667 2.591 0 3.91 1.483 3.956 4.45v8.221h-2.794v-8.06c0-.789-.171-1.374-.512-1.753-.341-.379-.899-.569-1.673-.569-1.127 0-1.966.51-2.518 1.529v8.854h-2.794v-12.441h2.633z"/></g><linearGradient id="SVGID_00000109711646866068007790000012117577222356730793_" gradientUnits="userSpaceOnUse" x1="200.902" y1="477.652" x2="422.909" y2="699.659"><stop offset="0" style="stop-color:#2eb4e8"/><stop offset=".016" style="stop-color:#2eb3e8"/><stop offset=".55" style="stop-color:#2e93e8"/><stop offset=".992" style="stop-color:#1b50a2;stop-opacity:.9"/></linearGradient><path style="fill:url(#SVGID_00000109711646866068007790000012117577222356730793_)" d="M465.051 530.848v115.615c0 14.808-12.084 26.813-26.99 26.813H185.75c-14.906 0-26.99-12.004-26.99-26.813V530.848c0-14.808 12.084-26.813 26.99-26.813h252.311c14.906.001 26.99 12.005 26.99 26.813z"/><g><path class="st17" d="M248.032 578.178h-11.876l-2.484 7.138h-5.538l11.581-30.658h4.78l11.602 30.658h-5.559l-2.506-7.138zm-10.381-4.296h8.886l-4.443-12.718-4.443 12.718zM272.647 583.084c-1.502 1.769-3.636 2.653-6.401 2.653-2.471 0-4.341-.723-5.612-2.169-1.271-1.446-1.905-3.538-1.905-6.275v-14.761h5.117v14.698c0 2.892 1.2 4.338 3.601 4.338 2.485 0 4.162-.891 5.033-2.674v-16.361h5.117v22.783h-4.822l-.128-2.232zM295.577 579.125c0-.912-.376-1.607-1.127-2.084-.751-.477-1.997-.898-3.737-1.263-1.741-.365-3.194-.828-4.359-1.39-2.555-1.235-3.832-3.025-3.832-5.369 0-1.965.828-3.608 2.485-4.927 1.656-1.319 3.762-1.979 6.317-1.979 2.723 0 4.924.674 6.601 2.022 1.677 1.347 2.516 3.095 2.516 5.243h-5.117c0-.982-.365-1.8-1.095-2.453-.73-.653-1.699-.979-2.906-.979-1.123 0-2.039.26-2.748.779-.709.519-1.063 1.214-1.063 2.084 0 .786.33 1.397.99 1.832.66.435 1.993.873 4.001 1.316 2.007.442 3.583.968 4.727 1.579 1.144.61 1.993 1.344 2.548 2.2.554.857.832 1.895.832 3.117 0 2.049-.85 3.709-2.548 4.98-1.699 1.27-3.924 1.906-6.675 1.906-1.867 0-3.531-.337-4.99-1.011-1.46-.674-2.597-1.601-3.411-2.78-.814-1.179-1.221-2.45-1.221-3.811h4.969c.07 1.207.526 2.137 1.369 2.79.842.653 1.958.979 3.348.979 1.348 0 2.372-.256 3.074-.768.701-.514 1.052-1.184 1.052-2.013zM304.168 573.756c0-3.537.832-6.362 2.495-8.475 1.664-2.113 3.871-3.169 6.622-3.169 2.597 0 4.639.906 6.127 2.716l.232-2.295h4.611v22.088c0 2.99-.93 5.348-2.79 7.075-1.86 1.727-4.369 2.59-7.528 2.59-1.671 0-3.303-.348-4.896-1.043-1.594-.694-2.804-1.603-3.632-2.726l2.422-3.074c1.572 1.867 3.509 2.8 5.812 2.8 1.698 0 3.039-.46 4.022-1.379.982-.92 1.474-2.271 1.474-4.053v-1.537c-1.474 1.642-3.439 2.464-5.896 2.464-2.667 0-4.846-1.06-6.538-3.18-1.692-2.12-2.537-5.054-2.537-8.802zm5.095.442c0 2.288.467 4.089 1.4 5.401.934 1.313 2.228 1.969 3.885 1.969 2.064 0 3.593-.885 4.59-2.654v-10.023c-.969-1.727-2.484-2.59-4.548-2.59-1.684 0-2.993.667-3.927 2s-1.4 3.3-1.4 5.897zM343.122 585.316c-.225-.435-.421-1.144-.589-2.127-1.628 1.699-3.621 2.548-5.98 2.548-2.288 0-4.155-.653-5.601-1.959-1.446-1.305-2.169-2.919-2.169-4.843 0-2.428.902-4.292 2.706-5.591 1.804-1.298 4.383-1.948 7.738-1.948h3.137v-1.495c0-1.179-.33-2.123-.99-2.832-.66-.709-1.663-1.063-3.011-1.063-1.165 0-2.12.291-2.864.874-.744.583-1.116 1.323-1.116 2.221h-5.117c0-1.249.414-2.418 1.242-3.506.828-1.088 1.955-1.94 3.38-2.559 1.424-.618 3.014-.927 4.769-.927 2.667 0 4.793.671 6.38 2.011 1.586 1.341 2.401 3.225 2.442 5.654v10.275c0 2.05.288 3.685.864 4.906v.358h-5.221zm-5.622-3.685a5.81 5.81 0 0 0 2.853-.737c.891-.491 1.561-1.151 2.011-1.979v-4.295h-2.758c-1.895 0-3.32.33-4.275.99-.955.66-1.432 1.593-1.432 2.8 0 .983.326 1.765.979 2.348.653.582 1.527.873 2.622.873zM372.833 574.156c0 3.537-.789 6.352-2.368 8.444-1.579 2.092-3.752 3.137-6.517 3.137-2.667 0-4.745-.962-6.233-2.885l-.253 2.463h-4.632v-32.343h5.116v11.75c1.474-1.741 3.46-2.611 5.959-2.611 2.779 0 4.962 1.032 6.548 3.096 1.587 2.063 2.379 4.948 2.379 8.654v.295zm-5.117-.442c0-2.471-.435-4.324-1.305-5.559-.871-1.235-2.134-1.853-3.79-1.853-2.218 0-3.777.968-4.675 2.906v9.391c.912 1.979 2.485 2.969 4.717 2.969 1.601 0 2.835-.597 3.706-1.79.87-1.192 1.319-2.997 1.348-5.411v-.653zM387.151 585.737c-3.242 0-5.871-1.021-7.886-3.064-2.014-2.043-3.022-4.762-3.022-8.159v-.632c0-2.274.439-4.306 1.316-6.096s2.109-3.183 3.696-4.18c1.586-.997 3.355-1.495 5.306-1.495 3.102 0 5.499.99 7.191 2.969 1.692 1.979 2.537 4.78 2.537 8.401v2.064h-14.887c.154 1.881.782 3.369 1.885 4.464 1.102 1.095 2.488 1.642 4.158 1.642 2.344 0 4.254-.948 5.727-2.843l2.759 2.632c-.912 1.362-2.13 2.418-3.654 3.169-1.522.752-3.23 1.128-5.126 1.128zm-.61-19.519c-1.404 0-2.537.491-3.401 1.474-.863.983-1.414 2.352-1.653 4.106h9.749v-.379c-.112-1.713-.569-3.008-1.369-3.885-.8-.878-1.908-1.316-3.326-1.316zM179.126 617.611c0-2.084.279-4.085.837-6.003a17.439 17.439 0 0 1 2.497-5.229c1.107-1.567 2.255-2.674 3.444-3.32l.526 1.688c-1.347 1.033-2.451 2.61-3.313 4.73-.862 2.121-1.335 4.496-1.418 7.124l-.014 1.175c0 3.56.65 6.649 1.95 9.268.784 1.567 1.715 2.794 2.794 3.679l-.526 1.563c-1.227-.683-2.398-1.826-3.513-3.43-2.176-3.134-3.264-6.883-3.264-11.245zM193.859 616.422l-2.462 2.559v6.806h-2.656v-20.14h2.656v9.959l8.95-9.959h3.209l-7.926 8.895 8.549 11.246h-3.181l-7.139-9.366zM214.774 625.786c-.148-.295-.268-.821-.36-1.577-1.19 1.236-2.61 1.854-4.26 1.854-1.476 0-2.686-.417-3.631-1.252-.945-.834-1.418-1.893-1.418-3.175 0-1.558.593-2.769 1.778-3.631 1.185-.862 2.851-1.294 5-1.294h2.49v-1.175c0-.895-.268-1.607-.802-2.138-.535-.53-1.323-.795-2.365-.795-.913 0-1.679.23-2.296.691-.618.461-.927 1.019-.927 1.674h-2.573c0-.747.265-1.469.795-2.165s1.25-1.247 2.158-1.653c.908-.406 1.907-.609 2.995-.609 1.724 0 3.075.431 4.053 1.294.977.862 1.485 2.049 1.522 3.561v6.889c0 1.374.175 2.467.526 3.278v.221h-2.685zm-7.594-18.972c0-.417.127-.766.38-1.049.254-.283.63-.424 1.127-.424s.876.141 1.134.424c.258.283.387.632.387 1.05 0 .417-.129.764-.387 1.042s-.636.417-1.134.417-.874-.139-1.127-.417c-.253-.278-.38-.625-.38-1.043zm3.347 17.022c.802 0 1.563-.208 2.282-.623.719-.415 1.24-.955 1.563-1.619v-3.07h-2.006c-3.135 0-4.703.917-4.703 2.752 0 .802.267 1.43.802 1.881.536.452 1.223.679 2.062.679zm2.601-16.994c0-.417.127-.768.38-1.056.254-.287.63-.431 1.127-.431.498 0 .876.143 1.134.431.258.287.387.639.387 1.056 0 .417-.129.764-.387 1.042s-.636.417-1.134.417c-.498 0-.874-.139-1.127-.417-.253-.277-.38-.625-.38-1.042zM229.617 624.306c-.996 1.172-2.458 1.757-4.385 1.757-1.596 0-2.81-.464-3.645-1.39-.835-.927-1.257-2.298-1.266-4.115v-9.738h2.559v9.669c0 2.269.922 3.403 2.767 3.403 1.955 0 3.255-.729 3.901-2.186V610.82h2.559v14.967h-2.435l-.055-1.481zM236.686 625.786v-12.989h-2.365v-1.978h2.365v-1.535c0-1.605.429-2.845 1.286-3.721.858-.876 2.07-1.314 3.638-1.314.59 0 1.176.078 1.757.233l-.138 2.062a7.442 7.442 0 0 0-1.383-.124c-.83 0-1.471.243-1.923.728-.452.486-.678 1.182-.678 2.088v1.582h3.195v1.978h-3.195v12.989h-2.559zM250.574 626.063c-2.029 0-3.679-.666-4.952-1.999s-1.909-3.115-1.909-5.347v-.47c0-1.485.284-2.811.851-3.977s1.36-2.079 2.379-2.739a5.984 5.984 0 0 1 3.313-.989c1.946 0 3.458.641 4.537 1.922 1.079 1.282 1.618 3.117 1.618 5.506v1.065h-10.139c.037 1.475.468 2.668 1.293 3.576.825.908 1.874 1.362 3.147 1.362.904 0 1.669-.184 2.296-.553a5.762 5.762 0 0 0 1.646-1.466l1.563 1.217c-1.253 1.928-3.134 2.892-5.643 2.892zm-.318-13.418c-1.033 0-1.9.376-2.601 1.128-.701.751-1.134 1.805-1.3 3.161h7.497v-.194c-.074-1.3-.424-2.308-1.051-3.022-.627-.716-1.475-1.073-2.545-1.073zM266.04 613.115a7.728 7.728 0 0 0-1.259-.097c-1.679 0-2.817.715-3.417 2.144v10.623h-2.559v-14.967h2.49l.042 1.729c.839-1.338 2.029-2.006 3.569-2.006.498 0 .876.064 1.134.194v2.38zM273.15 618.275h-6.75v-2.088h6.75v2.088zM279.199 627.515H277l8.41-21.869h2.186l-8.397 21.869zM297.24 605.646l6.584 16.433 6.584-16.433h3.444v20.14h-2.656v-7.843l.249-8.466-6.612 16.309H302.8l-6.598-16.267.263 8.424v7.843h-2.656v-20.14h3.431zM317.589 606.849c0-.416.127-.766.38-1.051.254-.286.63-.429 1.128-.429.498 0 .876.143 1.134.429.258.286.387.636.387 1.051 0 .414-.129.76-.387 1.037-.258.277-.636.415-1.134.415-.498 0-.874-.138-1.128-.415-.254-.276-.38-.622-.38-1.037zm2.766 18.937h-2.559v-14.967h2.559v14.967zM330.094 626.063c-2.029 0-3.679-.666-4.952-1.999-1.273-1.332-1.909-3.115-1.909-5.347v-.47c0-1.485.284-2.811.851-3.977s1.36-2.079 2.379-2.739a5.984 5.984 0 0 1 3.313-.989c1.946 0 3.458.641 4.537 1.922 1.079 1.282 1.618 3.117 1.618 5.506v1.065h-10.139c.037 1.475.468 2.668 1.293 3.576.825.908 1.874 1.362 3.147 1.362.904 0 1.669-.184 2.296-.553a5.762 5.762 0 0 0 1.646-1.466l1.563 1.217c-1.254 1.928-3.135 2.892-5.643 2.892zm-.318-13.418c-1.033 0-1.9.376-2.6 1.128-.701.751-1.134 1.805-1.3 3.161h7.497v-.194c-.074-1.3-.424-2.308-1.051-3.022-.628-.716-1.477-1.073-2.546-1.073zM341.797 607.195v3.624h2.794v1.978h-2.794v9.294c0 .6.124 1.05.373 1.35.249.3.673.451 1.272.451.296 0 .701-.055 1.217-.166v2.062a7.473 7.473 0 0 1-1.964.275c-1.144 0-2.006-.346-2.587-1.038-.581-.691-.871-1.673-.871-2.946v-9.282h-2.725v-1.978h2.725v-3.624h2.56zM353.222 626.063c-2.029 0-3.679-.666-4.952-1.999-1.273-1.332-1.909-3.115-1.909-5.347v-.47c0-1.485.284-2.811.851-3.977s1.36-2.079 2.379-2.739a5.984 5.984 0 0 1 3.313-.989c1.946 0 3.458.641 4.537 1.922 1.079 1.282 1.619 3.117 1.619 5.506v1.065h-10.14c.037 1.475.468 2.668 1.293 3.576.825.908 1.874 1.362 3.147 1.362.903 0 1.669-.184 2.296-.553a5.762 5.762 0 0 0 1.646-1.466l1.563 1.217c-1.253 1.928-3.134 2.892-5.643 2.892zm-.317-13.418c-1.033 0-1.9.376-2.601 1.128s-1.134 1.805-1.3 3.161h7.497v-.194c-.074-1.3-.424-2.308-1.051-3.022-.627-.716-1.475-1.073-2.545-1.073zM368.689 613.115a7.728 7.728 0 0 0-1.259-.097c-1.679 0-2.817.715-3.417 2.144v10.623h-2.559v-14.967h2.49l.042 1.729c.839-1.338 2.029-2.006 3.568-2.006.498 0 .876.064 1.135.194v2.38zM371.94 625.786v-12.989h-2.366v-1.978h2.366v-1.535c0-1.605.429-2.845 1.286-3.721.858-.876 2.07-1.314 3.638-1.314.59 0 1.175.078 1.756.233l-.138 2.062a7.434 7.434 0 0 0-1.383-.124c-.83 0-1.471.243-1.923.728-.452.486-.678 1.182-.678 2.088v1.582h3.196v1.978h-3.196v12.989h-2.558zM379.963 606.849c0-.416.127-.766.381-1.051.254-.286.63-.429 1.128-.429.498 0 .876.143 1.134.429.258.286.387.636.387 1.051 0 .414-.129.76-.387 1.037-.258.277-.636.415-1.134.415-.498 0-.874-.138-1.128-.415-.254-.276-.381-.622-.381-1.037zm2.766 18.937h-2.559v-14.967h2.559v14.967zM388.678 610.819l.082 1.881c1.144-1.439 2.638-2.158 4.482-2.158 3.163 0 4.758 1.785 4.787 5.353v9.891h-2.559v-9.904c-.009-1.079-.256-1.877-.74-2.393-.484-.517-1.238-.775-2.262-.775-.83 0-1.558.221-2.185.664a4.518 4.518 0 0 0-1.467 1.742v10.665h-2.559v-14.967h2.421zM400.699 618.178c0-2.296.544-4.143 1.632-5.54 1.089-1.397 2.513-2.096 4.275-2.096 1.752 0 3.14.6 4.164 1.798v-7.802h2.559v21.247h-2.352l-.125-1.605c-1.023 1.254-2.448 1.881-4.274 1.881-1.734 0-3.147-.71-4.24-2.13-1.093-1.42-1.639-3.274-1.639-5.561v-.192zm2.559.291c0 1.697.351 3.025 1.051 3.984.701.959 1.669 1.439 2.905 1.439 1.623 0 2.808-.729 3.555-2.186v-6.875c-.766-1.411-1.942-2.116-3.528-2.116-1.254 0-2.232.484-2.933 1.452-.699.968-1.05 2.402-1.05 4.302zM422.942 626.063c-2.029 0-3.679-.666-4.951-1.999-1.273-1.332-1.909-3.115-1.909-5.347v-.47c0-1.485.284-2.811.851-3.977s1.36-2.079 2.379-2.739a5.984 5.984 0 0 1 3.313-.989c1.946 0 3.458.641 4.537 1.922 1.079 1.282 1.619 3.117 1.619 5.506v1.065h-10.14c.037 1.475.468 2.668 1.293 3.576.825.908 1.874 1.362 3.147 1.362.903 0 1.669-.184 2.296-.553a5.762 5.762 0 0 0 1.646-1.466l1.563 1.217c-1.254 1.928-3.136 2.892-5.644 2.892zm-.318-13.418c-1.033 0-1.9.376-2.601 1.128-.701.751-1.134 1.805-1.3 3.161h7.497v-.194c-.074-1.3-.424-2.308-1.051-3.022-.627-.716-1.475-1.073-2.545-1.073zM438.408 613.115a7.728 7.728 0 0 0-1.259-.097c-1.679 0-2.817.715-3.417 2.144v10.623h-2.559v-14.967h2.49l.042 1.729c.839-1.338 2.029-2.006 3.568-2.006.498 0 .876.064 1.135.194v2.38zM446.099 617.749c0 2.056-.27 4.027-.81 5.913a17.486 17.486 0 0 1-2.476 5.222c-1.112 1.596-2.276 2.73-3.493 3.403l-.539-1.563c1.42-1.088 2.561-2.778 3.424-5.07.862-2.291 1.303-4.835 1.321-7.628v-.443c0-1.937-.203-3.737-.609-5.402-.405-1.664-.971-3.156-1.694-4.475-.724-1.318-1.537-2.346-2.441-3.084l.539-1.563c1.217.674 2.377 1.799 3.479 3.375a17.504 17.504 0 0 1 2.476 5.215c.548 1.9.823 3.933.823 6.1z"/></g></svg>