<?xml version="1.0" encoding="utf-8"?>
<!-- Generator: Adobe Illustrator 16.0.0, SVG Export Plug-In . SVG Version: 6.00 Build 0)  -->
<!DOCTYPE svg PUBLIC "-//W3C//DTD SVG 1.1//EN" "http://www.w3.org/Graphics/SVG/1.1/DTD/svg11.dtd">
<svg version="1.1" id="Ebene_1" xmlns="http://www.w3.org/2000/svg" xmlns:xlink="http://www.w3.org/1999/xlink" x="0px" y="0px"
	 width="300px" height="70px" viewBox="0 0 300 70" enable-background="new 0 0 300 70" xml:space="preserve">
<g>
	<path fill="#0973F0" d="M94.086,34.297v3.768H78.736V15.957h15.07v3.768H83.033v5.324h9.31v3.488h-9.31v5.76H94.086z"/>
	<path fill="#0973F0" d="M103.023,38.376c-1.37,0-2.709-0.218-4.017-0.654c-1.308-0.436-2.429-1.059-3.363-1.868l1.557-2.615
		c0.997,0.706,1.967,1.24,2.912,1.604c0.944,0.363,1.884,0.545,2.818,0.545c0.83,0,1.484-0.156,1.961-0.467
		c0.478-0.312,0.716-0.758,0.716-1.339s-0.28-1.007-0.841-1.277c-0.56-0.27-1.474-0.581-2.74-0.934
		c-1.059-0.291-1.962-0.571-2.709-0.841c-0.748-0.27-1.35-0.576-1.806-0.918c-0.457-0.343-0.789-0.737-0.997-1.184
		c-0.208-0.446-0.311-0.98-0.311-1.604c0-0.83,0.161-1.577,0.482-2.242c0.322-0.664,0.773-1.23,1.354-1.697
		c0.581-0.467,1.261-0.825,2.04-1.074s1.624-0.374,2.538-0.374c1.225,0,2.372,0.177,3.441,0.529c1.069,0.354,2.05,0.924,2.942,1.712
		l-1.681,2.522c-0.831-0.623-1.635-1.079-2.414-1.37c-0.778-0.291-1.552-0.436-2.319-0.436c-0.706,0-1.298,0.146-1.775,0.436
		c-0.478,0.291-0.716,0.758-0.716,1.401c0,0.291,0.057,0.529,0.171,0.716c0.114,0.187,0.296,0.354,0.545,0.499
		s0.576,0.285,0.98,0.42c0.405,0.135,0.908,0.275,1.51,0.42c1.121,0.291,2.081,0.582,2.88,0.872
		c0.799,0.291,1.453,0.623,1.961,0.997c0.509,0.374,0.882,0.804,1.121,1.292c0.238,0.488,0.358,1.075,0.358,1.76
		c0,1.599-0.591,2.859-1.774,3.783C106.666,37.914,105.057,38.376,103.023,38.376z"/>
	<path fill="#0973F0" d="M122.11,37.224c-0.561,0.249-1.246,0.498-2.055,0.747s-1.661,0.374-2.553,0.374
		c-0.582,0-1.126-0.073-1.635-0.218c-0.509-0.146-0.955-0.379-1.339-0.701c-0.384-0.321-0.69-0.736-0.919-1.245
		s-0.342-1.126-0.342-1.853v-9.373h-2.148v-3.207h2.148v-5.293h4.172v5.293h3.425v3.207h-3.425v7.971
		c0,0.581,0.15,0.991,0.452,1.229c0.301,0.239,0.669,0.358,1.105,0.358c0.436,0,0.861-0.072,1.276-0.218
		c0.415-0.146,0.748-0.27,0.997-0.374L122.11,37.224z"/>
	<path fill="#0973F0" d="M128.742,38.376c-0.789,0-1.526-0.13-2.211-0.39c-0.685-0.259-1.276-0.622-1.775-1.09
		c-0.498-0.467-0.887-1.012-1.167-1.635c-0.28-0.622-0.42-1.308-0.42-2.055c0-0.768,0.171-1.479,0.514-2.133
		c0.343-0.654,0.82-1.209,1.433-1.666c0.612-0.457,1.344-0.814,2.195-1.074c0.851-0.259,1.785-0.389,2.802-0.389
		c0.726,0,1.437,0.062,2.133,0.187c0.695,0.125,1.313,0.301,1.853,0.529v-0.935c0-1.079-0.306-1.909-0.918-2.491
		c-0.612-0.581-1.521-0.872-2.725-0.872c-0.872,0-1.723,0.156-2.553,0.467c-0.831,0.312-1.681,0.768-2.553,1.37l-1.276-2.647
		c2.096-1.39,4.359-2.086,6.788-2.086c2.346,0,4.167,0.576,5.465,1.728c1.297,1.152,1.946,2.818,1.946,4.998v5.076
		c0,0.436,0.078,0.747,0.234,0.934c0.156,0.188,0.41,0.291,0.763,0.312v3.55c-0.706,0.145-1.318,0.218-1.837,0.218
		c-0.789,0-1.396-0.177-1.822-0.529c-0.426-0.353-0.69-0.819-0.794-1.401l-0.093-0.902c-0.727,0.955-1.609,1.681-2.647,2.18
		C131.036,38.127,129.925,38.376,128.742,38.376z M129.925,35.324c0.706,0,1.375-0.124,2.008-0.373
		c0.633-0.25,1.126-0.581,1.479-0.997c0.457-0.353,0.685-0.747,0.685-1.183v-1.869c-0.498-0.187-1.038-0.337-1.619-0.452
		c-0.581-0.114-1.142-0.171-1.681-0.171c-1.08,0-1.962,0.244-2.647,0.731c-0.685,0.488-1.027,1.105-1.027,1.853
		c0,0.706,0.27,1.292,0.81,1.76C128.472,35.091,129.136,35.324,129.925,35.324z"/>
	<path fill="#0973F0" d="M151.814,37.224c-0.561,0.249-1.246,0.498-2.055,0.747c-0.81,0.249-1.66,0.374-2.553,0.374
		c-0.582,0-1.126-0.073-1.635-0.218c-0.509-0.146-0.955-0.379-1.339-0.701c-0.385-0.321-0.69-0.736-0.919-1.245
		s-0.342-1.126-0.342-1.853v-9.373h-2.148v-3.207h2.148v-5.293h4.172v5.293h3.424v3.207h-3.424v7.971
		c0,0.581,0.15,0.991,0.451,1.229c0.301,0.239,0.67,0.358,1.105,0.358c0.437,0,0.861-0.072,1.277-0.218
		c0.415-0.146,0.747-0.27,0.997-0.374L151.814,37.224z"/>
	<path fill="#0973F0" d="M161.156,38.376c-1.309,0-2.492-0.224-3.551-0.67s-1.961-1.053-2.709-1.821
		c-0.746-0.768-1.322-1.66-1.727-2.678c-0.406-1.017-0.607-2.086-0.607-3.207c0-1.163,0.197-2.258,0.592-3.285
		c0.393-1.027,0.965-1.931,1.711-2.709c0.748-0.778,1.656-1.396,2.725-1.853c1.07-0.457,2.268-0.685,3.598-0.685
		c1.328,0,2.516,0.229,3.564,0.685s1.941,1.069,2.678,1.837c0.736,0.768,1.297,1.661,1.682,2.678
		c0.385,1.018,0.576,2.076,0.576,3.176c0,0.27-0.006,0.529-0.016,0.778s-0.037,0.457-0.078,0.623h-12.611
		c0.063,0.644,0.219,1.215,0.469,1.713c0.248,0.498,0.57,0.924,0.965,1.276c0.395,0.354,0.84,0.623,1.338,0.81
		s1.018,0.28,1.557,0.28c0.83,0,1.615-0.202,2.352-0.607c0.736-0.404,1.24-0.938,1.51-1.604l3.582,0.997
		c-0.604,1.245-1.563,2.268-2.881,3.066C164.555,37.977,162.982,38.376,161.156,38.376z M165.391,28.537
		c-0.104-1.225-0.557-2.206-1.355-2.943c-0.799-0.736-1.77-1.105-2.91-1.105c-0.561,0-1.086,0.099-1.572,0.296
		c-0.488,0.198-0.92,0.473-1.293,0.825c-0.373,0.354-0.68,0.778-0.918,1.277c-0.24,0.498-0.379,1.048-0.42,1.65H165.391z"/>
	<path fill="#0973F0" d="M193.32,38.064V19.911l-8.064,14.043h-1.275l-8.064-14.043v18.153h-2.18V15.957h2.24l8.627,15.133
		l8.686-15.133h2.211v22.107H193.32z"/>
	<path fill="#0973F0" d="M204.531,38.376c-0.768,0-1.479-0.13-2.133-0.39c-0.654-0.259-1.225-0.617-1.713-1.074
		c-0.488-0.456-0.867-0.991-1.137-1.604s-0.404-1.271-0.404-1.977c0-0.706,0.166-1.359,0.498-1.962
		c0.332-0.602,0.799-1.121,1.4-1.557s1.318-0.773,2.148-1.012s1.744-0.358,2.74-0.358c0.83,0,1.672,0.073,2.523,0.218
		c0.85,0.146,1.607,0.353,2.271,0.623V27.82c0-1.433-0.404-2.569-1.213-3.41c-0.811-0.841-1.932-1.261-3.363-1.261
		c-0.83,0-1.682,0.167-2.553,0.499c-0.873,0.332-1.756,0.81-2.646,1.432l-0.748-1.401c2.096-1.411,4.131-2.117,6.104-2.117
		c2.033,0,3.631,0.571,4.795,1.712c1.162,1.142,1.744,2.72,1.744,4.733v7.317c0,0.581,0.258,0.872,0.777,0.872v1.868
		c-0.354,0.063-0.623,0.094-0.809,0.094c-0.541,0-0.961-0.135-1.262-0.405c-0.301-0.27-0.463-0.643-0.482-1.121l-0.063-1.276
		c-0.748,0.976-1.688,1.724-2.818,2.242S205.838,38.376,204.531,38.376z M205.029,36.757c1.1,0,2.111-0.207,3.035-0.623
		c0.924-0.415,1.625-0.965,2.102-1.65c0.188-0.187,0.328-0.389,0.422-0.607c0.094-0.218,0.139-0.42,0.139-0.606v-2.647
		c-0.705-0.27-1.438-0.477-2.195-0.623c-0.758-0.145-1.529-0.218-2.318-0.218c-1.494,0-2.709,0.312-3.643,0.934
		c-0.936,0.623-1.402,1.443-1.402,2.46c0,0.498,0.098,0.966,0.297,1.401c0.195,0.436,0.467,0.814,0.809,1.137
		s0.752,0.576,1.23,0.763C203.98,36.663,204.488,36.757,205.029,36.757z"/>
	<path fill="#0973F0" d="M231.061,38.064h-2.117v-9.061c0-1.931-0.287-3.332-0.857-4.204c-0.57-0.872-1.447-1.308-2.631-1.308
		c-0.623,0-1.246,0.114-1.867,0.342c-0.623,0.229-1.199,0.55-1.729,0.965c-0.529,0.416-1.002,0.908-1.418,1.479
		c-0.414,0.571-0.715,1.188-0.902,1.853v9.933h-2.117V21.842h1.93v3.674c0.664-1.183,1.615-2.138,2.85-2.865
		c1.234-0.727,2.58-1.09,4.033-1.09c0.891,0,1.65,0.167,2.271,0.498c0.623,0.333,1.121,0.8,1.496,1.401
		c0.373,0.603,0.643,1.339,0.809,2.211c0.166,0.872,0.25,1.837,0.25,2.896V38.064z"/>
	<path fill="#0973F0" d="M239.654,38.376c-0.768,0-1.479-0.13-2.133-0.39c-0.654-0.259-1.225-0.617-1.713-1.074
		c-0.488-0.456-0.867-0.991-1.137-1.604s-0.404-1.271-0.404-1.977c0-0.706,0.166-1.359,0.498-1.962
		c0.332-0.602,0.799-1.121,1.4-1.557s1.318-0.773,2.148-1.012s1.744-0.358,2.74-0.358c0.83,0,1.672,0.073,2.523,0.218
		c0.85,0.146,1.607,0.353,2.271,0.623V27.82c0-1.433-0.404-2.569-1.213-3.41c-0.811-0.841-1.932-1.261-3.363-1.261
		c-0.83,0-1.682,0.167-2.553,0.499c-0.873,0.332-1.756,0.81-2.646,1.432l-0.748-1.401c2.096-1.411,4.131-2.117,6.104-2.117
		c2.033,0,3.631,0.571,4.795,1.712c1.162,1.142,1.744,2.72,1.744,4.733v7.317c0,0.581,0.258,0.872,0.777,0.872v1.868
		c-0.354,0.063-0.623,0.094-0.809,0.094c-0.541,0-0.961-0.135-1.262-0.405c-0.301-0.27-0.463-0.643-0.482-1.121l-0.063-1.276
		c-0.748,0.976-1.688,1.724-2.818,2.242S240.961,38.376,239.654,38.376z M240.152,36.757c1.1,0,2.111-0.207,3.035-0.623
		c0.924-0.415,1.625-0.965,2.102-1.65c0.188-0.187,0.328-0.389,0.422-0.607c0.094-0.218,0.139-0.42,0.139-0.606v-2.647
		c-0.705-0.27-1.438-0.477-2.195-0.623c-0.758-0.145-1.529-0.218-2.318-0.218c-1.494,0-2.709,0.312-3.643,0.934
		c-0.936,0.623-1.402,1.443-1.402,2.46c0,0.498,0.098,0.966,0.297,1.401c0.195,0.436,0.467,0.814,0.809,1.137
		s0.752,0.576,1.23,0.763C239.104,36.663,239.611,36.757,240.152,36.757z"/>
	<path fill="#0973F0" d="M259.053,38.282c-1.121,0-2.145-0.233-3.066-0.7c-0.924-0.467-1.725-1.085-2.398-1.853
		c-0.676-0.769-1.199-1.65-1.572-2.647c-0.373-0.996-0.561-2.023-0.561-3.082c0-1.121,0.182-2.195,0.545-3.223
		c0.363-1.028,0.877-1.925,1.541-2.694c0.664-0.768,1.459-1.38,2.383-1.837c0.922-0.457,1.945-0.685,3.066-0.685
		c1.391,0,2.594,0.348,3.611,1.043c1.018,0.696,1.889,1.573,2.615,2.631v-3.394h1.9v16.285c0,1.121-0.213,2.111-0.639,2.974
		c-0.426,0.861-0.996,1.582-1.713,2.164c-0.715,0.581-1.557,1.017-2.521,1.308c-0.965,0.29-1.988,0.436-3.066,0.436
		c-1.869,0-3.375-0.332-4.516-0.996c-1.143-0.665-2.066-1.557-2.771-2.678l1.309-1.027c0.643,1.037,1.494,1.801,2.553,2.288
		s2.199,0.732,3.426,0.732c0.787,0,1.535-0.109,2.242-0.327c0.705-0.218,1.322-0.54,1.852-0.966s0.949-0.965,1.262-1.619
		c0.311-0.653,0.467-1.416,0.467-2.288V34.92c-0.623,1.038-1.475,1.857-2.553,2.46C261.367,37.981,260.236,38.282,259.053,38.282z
		 M259.645,36.508c0.623,0,1.234-0.114,1.836-0.343c0.604-0.229,1.148-0.534,1.635-0.919c0.488-0.384,0.898-0.814,1.23-1.292
		s0.551-0.965,0.654-1.463v-5.014c-0.229-0.581-0.541-1.121-0.934-1.619c-0.395-0.498-0.842-0.923-1.34-1.276
		s-1.033-0.633-1.604-0.841c-0.57-0.207-1.146-0.312-1.729-0.312c-0.914,0-1.729,0.192-2.443,0.576
		c-0.717,0.384-1.324,0.887-1.822,1.51c-0.498,0.623-0.877,1.329-1.137,2.117c-0.26,0.789-0.389,1.588-0.389,2.397
		c0,0.872,0.156,1.703,0.467,2.492c0.313,0.789,0.742,1.479,1.293,2.07c0.549,0.592,1.188,1.059,1.914,1.401
		C258.004,36.336,258.793,36.508,259.645,36.508z"/>
	<path fill="#0973F0" d="M278.793,38.376c-1.184,0-2.268-0.224-3.254-0.67s-1.842-1.059-2.568-1.837s-1.293-1.676-1.697-2.693
		c-0.404-1.017-0.607-2.106-0.607-3.27c0-1.141,0.203-2.215,0.607-3.223c0.404-1.006,0.965-1.889,1.682-2.646
		c0.715-0.758,1.572-1.359,2.568-1.806c0.996-0.446,2.076-0.669,3.238-0.669c1.184,0,2.268,0.223,3.254,0.669
		c0.986,0.447,1.832,1.054,2.537,1.822c0.707,0.768,1.256,1.65,1.65,2.646s0.592,2.055,0.592,3.176c0,0.166,0,0.332,0,0.498
		c0,0.167-0.01,0.28-0.031,0.342h-13.887c0.063,0.872,0.264,1.677,0.607,2.413c0.342,0.737,0.783,1.376,1.322,1.915
		c0.541,0.54,1.158,0.961,1.854,1.262s1.438,0.451,2.227,0.451c0.518,0,1.037-0.072,1.557-0.218
		c0.518-0.146,0.996-0.343,1.432-0.592s0.83-0.556,1.184-0.919c0.354-0.362,0.623-0.763,0.811-1.198l1.836,0.498
		c-0.248,0.603-0.602,1.147-1.059,1.635s-0.986,0.913-1.588,1.276s-1.266,0.644-1.992,0.841S279.582,38.376,278.793,38.376z
		 M284.771,29.097c-0.063-0.872-0.266-1.666-0.607-2.382s-0.779-1.333-1.309-1.853c-0.529-0.519-1.141-0.923-1.836-1.214
		c-0.695-0.291-1.438-0.436-2.227-0.436s-1.537,0.146-2.242,0.436c-0.705,0.291-1.322,0.696-1.852,1.214
		c-0.529,0.519-0.955,1.142-1.277,1.868s-0.514,1.516-0.576,2.366H284.771z"/>
	<path fill="#0973F0" d="M298.16,23.71c-1.432,0.042-2.678,0.436-3.736,1.183c-1.059,0.748-1.807,1.775-2.242,3.083v10.088h-2.117
		V21.842h1.992v3.892c0.602-1.246,1.412-2.221,2.43-2.927c1.016-0.706,2.105-1.059,3.27-1.059c0.166,0,0.301,0.011,0.404,0.031
		V23.71z"/>
</g>
<g>
	<path fill="#0C2C52" d="M78.126,59.72v-7.181h-1.257v-1.858h1.257v-0.583c0-1.191,0.285-2.133,0.856-2.825s1.349-1.039,2.333-1.039
		c0.777,0,1.561,0.188,2.351,0.565l-0.492,1.841c-0.183-0.098-0.398-0.18-0.647-0.246c-0.25-0.067-0.477-0.101-0.684-0.101
		c-0.851,0-1.276,0.571-1.276,1.713v0.675h2.333v1.858h-2.333v7.181H78.126z"/>
	<path fill="#0C2C52" d="M88.405,59.902c-0.778,0-1.476-0.134-2.096-0.401c-0.62-0.267-1.146-0.629-1.577-1.084
		c-0.431-0.456-0.762-0.981-0.993-1.577c-0.231-0.595-0.346-1.221-0.346-1.877c0-0.668,0.115-1.3,0.346-1.896
		c0.231-0.595,0.562-1.12,0.993-1.576c0.431-0.455,0.957-0.816,1.577-1.084s1.318-0.401,2.096-0.401
		c0.777,0,1.473,0.134,2.087,0.401c0.613,0.268,1.136,0.629,1.567,1.084c0.431,0.456,0.763,0.981,0.994,1.576
		c0.23,0.596,0.346,1.228,0.346,1.896c0,0.656-0.116,1.282-0.346,1.877c-0.231,0.596-0.559,1.121-0.984,1.577
		c-0.425,0.455-0.948,0.817-1.567,1.084C89.881,59.769,89.183,59.902,88.405,59.902z M85.909,54.963
		c0,0.426,0.063,0.812,0.191,1.157c0.127,0.347,0.303,0.647,0.528,0.902c0.225,0.255,0.489,0.453,0.793,0.593
		c0.303,0.14,0.631,0.209,0.984,0.209c0.352,0,0.68-0.069,0.984-0.209c0.303-0.14,0.567-0.338,0.792-0.593
		c0.225-0.255,0.401-0.559,0.528-0.911c0.128-0.353,0.191-0.741,0.191-1.166c0-0.413-0.063-0.796-0.191-1.148
		c-0.127-0.353-0.304-0.656-0.528-0.911c-0.225-0.255-0.489-0.453-0.792-0.593c-0.304-0.14-0.632-0.209-0.984-0.209
		c-0.353,0-0.681,0.072-0.984,0.219c-0.304,0.146-0.568,0.346-0.793,0.601c-0.225,0.256-0.401,0.56-0.528,0.912
		C85.972,54.168,85.909,54.55,85.909,54.963z"/>
	<path fill="#0C2C52" d="M100.907,52.284c-0.741,0.013-1.403,0.155-1.987,0.429c-0.583,0.272-1.002,0.683-1.257,1.229v5.777h-2.442
		v-9.55h2.242v2.041c0.17-0.328,0.37-0.622,0.601-0.884c0.231-0.261,0.48-0.488,0.747-0.684c0.268-0.193,0.538-0.343,0.811-0.446
		c0.273-0.103,0.538-0.154,0.793-0.154c0.133,0,0.234,0,0.301,0c0.066,0,0.13,0.006,0.191,0.018V52.284z"/>
	<path fill="#0C2C52" d="M106.028,53.159c0-0.79,0.143-1.57,0.428-2.342c0.285-0.771,0.702-1.461,1.249-2.068s1.215-1.1,2.004-1.477
		c0.79-0.376,1.689-0.565,2.697-0.565c1.191,0,2.22,0.262,3.089,0.784c0.868,0.522,1.515,1.203,1.941,2.041l-1.932,1.33
		c-0.17-0.364-0.376-0.671-0.62-0.92s-0.504-0.446-0.784-0.593c-0.279-0.146-0.571-0.252-0.875-0.318s-0.602-0.101-0.893-0.101
		c-0.632,0-1.182,0.128-1.649,0.383s-0.856,0.586-1.167,0.993c-0.31,0.407-0.543,0.869-0.701,1.385
		c-0.158,0.517-0.237,1.03-0.237,1.54c0,0.571,0.091,1.121,0.273,1.649s0.44,0.993,0.774,1.395c0.334,0.4,0.735,0.723,1.203,0.966
		c0.467,0.243,0.981,0.364,1.54,0.364c0.292,0,0.595-0.036,0.911-0.109c0.316-0.072,0.616-0.188,0.902-0.346s0.55-0.361,0.793-0.61
		c0.243-0.249,0.438-0.55,0.583-0.902l2.06,1.185c-0.207,0.486-0.501,0.914-0.884,1.284c-0.383,0.371-0.814,0.684-1.294,0.939
		c-0.48,0.255-0.993,0.449-1.54,0.583c-0.547,0.133-1.082,0.2-1.604,0.2c-0.923,0-1.768-0.194-2.533-0.583
		c-0.765-0.389-1.424-0.896-1.977-1.521c-0.553-0.626-0.984-1.337-1.294-2.133C106.183,54.796,106.028,53.985,106.028,53.159z"/>
	<path fill="#0C2C52" d="M123.669,59.902c-0.778,0-1.476-0.134-2.096-0.401c-0.62-0.267-1.146-0.629-1.577-1.084
		c-0.431-0.456-0.762-0.981-0.993-1.577c-0.231-0.595-0.346-1.221-0.346-1.877c0-0.668,0.115-1.3,0.346-1.896
		c0.231-0.595,0.562-1.12,0.993-1.576c0.431-0.455,0.957-0.816,1.577-1.084s1.318-0.401,2.096-0.401
		c0.777,0,1.473,0.134,2.087,0.401c0.613,0.268,1.136,0.629,1.567,1.084c0.431,0.456,0.763,0.981,0.994,1.576
		c0.23,0.596,0.346,1.228,0.346,1.896c0,0.656-0.116,1.282-0.346,1.877c-0.231,0.596-0.559,1.121-0.984,1.577
		c-0.425,0.455-0.948,0.817-1.567,1.084C125.145,59.769,124.446,59.902,123.669,59.902z M121.172,54.963
		c0,0.426,0.063,0.812,0.191,1.157c0.127,0.347,0.303,0.647,0.528,0.902c0.225,0.255,0.489,0.453,0.793,0.593
		c0.303,0.14,0.631,0.209,0.984,0.209c0.352,0,0.68-0.069,0.984-0.209c0.303-0.14,0.567-0.338,0.792-0.593
		c0.225-0.255,0.401-0.559,0.528-0.911c0.128-0.353,0.191-0.741,0.191-1.166c0-0.413-0.063-0.796-0.191-1.148
		c-0.127-0.353-0.304-0.656-0.528-0.911c-0.225-0.255-0.489-0.453-0.792-0.593c-0.304-0.14-0.632-0.209-0.984-0.209
		c-0.353,0-0.681,0.072-0.984,0.219c-0.304,0.146-0.568,0.346-0.793,0.601c-0.225,0.256-0.401,0.56-0.528,0.912
		C121.236,54.168,121.172,54.55,121.172,54.963z"/>
	<path fill="#0C2C52" d="M139.36,59.72h-2.442v-5.358c0-0.765-0.134-1.323-0.401-1.676c-0.268-0.353-0.638-0.529-1.112-0.529
		c-0.243,0-0.492,0.049-0.747,0.146c-0.255,0.097-0.495,0.233-0.72,0.41c-0.225,0.176-0.429,0.386-0.611,0.628
		c-0.182,0.243-0.316,0.511-0.401,0.802v5.577h-2.442v-9.55h2.205v1.768c0.352-0.607,0.862-1.081,1.531-1.421
		c0.668-0.34,1.421-0.511,2.26-0.511c0.595,0,1.082,0.109,1.458,0.328s0.668,0.505,0.875,0.856c0.206,0.353,0.349,0.754,0.428,1.203
		c0.079,0.449,0.118,0.905,0.118,1.367V59.72z"/>
	<path fill="#0C2C52" d="M147.306,59.228c-0.328,0.146-0.729,0.292-1.203,0.438c-0.474,0.146-0.972,0.219-1.494,0.219
		c-0.34,0-0.659-0.043-0.957-0.128c-0.297-0.085-0.559-0.222-0.783-0.41c-0.225-0.188-0.404-0.431-0.538-0.729
		s-0.201-0.659-0.201-1.084v-5.486h-1.257V50.17h1.257v-3.098h2.442v3.098h2.005v1.877h-2.005v4.666c0,0.34,0.088,0.58,0.265,0.72
		c0.176,0.14,0.392,0.21,0.646,0.21s0.504-0.043,0.747-0.128s0.438-0.158,0.583-0.219L147.306,59.228z"/>
	<path fill="#0C2C52" d="M151.369,59.902c-0.462,0-0.893-0.076-1.294-0.229c-0.401-0.151-0.747-0.364-1.039-0.638
		c-0.291-0.273-0.52-0.592-0.684-0.957c-0.163-0.364-0.245-0.765-0.245-1.202c0-0.449,0.1-0.866,0.3-1.249
		c0.201-0.382,0.48-0.707,0.839-0.975c0.358-0.267,0.786-0.477,1.285-0.629c0.498-0.151,1.044-0.228,1.64-0.228
		c0.425,0,0.841,0.036,1.248,0.109s0.769,0.176,1.085,0.31v-0.547c0-0.631-0.18-1.117-0.538-1.458c-0.358-0.34-0.89-0.51-1.595-0.51
		c-0.51,0-1.008,0.091-1.494,0.273c-0.486,0.182-0.984,0.449-1.494,0.802l-0.747-1.549c1.227-0.814,2.551-1.222,3.973-1.222
		c1.373,0,2.438,0.338,3.198,1.012s1.14,1.649,1.14,2.925v2.971c0,0.255,0.045,0.438,0.136,0.547c0.092,0.109,0.24,0.17,0.447,0.183
		v2.077c-0.413,0.085-0.772,0.128-1.075,0.128c-0.462,0-0.817-0.104-1.066-0.311c-0.249-0.206-0.404-0.479-0.465-0.819l-0.055-0.529
		c-0.426,0.56-0.941,0.984-1.549,1.276C152.712,59.756,152.062,59.902,151.369,59.902z M152.062,58.116
		c0.413,0,0.805-0.073,1.176-0.219c0.37-0.146,0.659-0.34,0.865-0.583c0.268-0.207,0.401-0.438,0.401-0.693v-1.093
		c-0.292-0.109-0.607-0.197-0.948-0.265c-0.34-0.066-0.668-0.1-0.983-0.1c-0.632,0-1.148,0.143-1.55,0.428
		c-0.4,0.286-0.601,0.647-0.601,1.084c0,0.414,0.157,0.757,0.474,1.03C151.211,57.979,151.6,58.116,152.062,58.116z"/>
	<path fill="#0C2C52" d="M163.817,59.902c-0.778,0-1.477-0.134-2.097-0.401c-0.619-0.267-1.145-0.629-1.576-1.084
		c-0.432-0.456-0.763-0.981-0.993-1.577c-0.23-0.595-0.346-1.221-0.346-1.877c0-0.668,0.115-1.3,0.346-1.896
		c0.23-0.595,0.562-1.12,0.993-1.576c0.432-0.455,0.957-0.816,1.576-1.084c0.62-0.268,1.318-0.401,2.097-0.401
		c0.777,0,1.473,0.134,2.086,0.401s1.136,0.629,1.567,1.084c0.432,0.456,0.763,0.981,0.993,1.576
		c0.23,0.596,0.347,1.228,0.347,1.896c0,0.656-0.116,1.282-0.347,1.877c-0.23,0.596-0.559,1.121-0.983,1.577
		c-0.426,0.455-0.948,0.817-1.567,1.084C165.293,59.769,164.595,59.902,163.817,59.902z M161.32,54.963
		c0,0.426,0.063,0.812,0.191,1.157c0.127,0.347,0.304,0.647,0.528,0.902s0.489,0.453,0.793,0.593s0.632,0.209,0.984,0.209
		c0.352,0,0.68-0.069,0.983-0.209s0.568-0.338,0.793-0.593s0.401-0.559,0.528-0.911c0.128-0.353,0.191-0.741,0.191-1.166
		c0-0.413-0.063-0.796-0.191-1.148c-0.127-0.353-0.304-0.656-0.528-0.911s-0.489-0.453-0.793-0.593s-0.632-0.209-0.983-0.209
		c-0.353,0-0.681,0.072-0.984,0.219c-0.304,0.146-0.568,0.346-0.793,0.601c-0.225,0.256-0.401,0.56-0.528,0.912
		C161.384,54.168,161.32,54.55,161.32,54.963z"/>
</g>
<g>
	<path fill-rule="evenodd" clip-rule="evenodd" fill="#0973F0" d="M9.132,33.331c0,1.306-0.012,2.526,0.015,3.746
		c0.002,0.129,0.203,0.29,0.347,0.377c1.76,1.029,3.528,2.049,5.293,3.071c2.726,1.575,5.452,3.15,8.178,4.726
		c1.932,1.115,3.856,2.242,5.801,3.333c0.447,0.248,0.622,0.527,0.615,1.048c-0.027,2.307-0.012,4.614-0.012,7.087
		c-6.78-3.911-13.455-7.764-20.252-11.687c0,1.308-0.037,2.456,0.028,3.601c0.015,0.242,0.366,0.529,0.629,0.682
		c6.286,3.647,12.575,7.29,18.882,10.899c0.564,0.323,0.737,0.675,0.727,1.292c-0.037,1.97-0.012,3.939-0.012,5.909
		c0,0.28,0,0.56,0,0.966c-0.35-0.18-0.581-0.287-0.798-0.413C20.074,63.063,11.58,58.15,3.07,53.263
		c-0.523-0.301-0.708-0.619-0.708-1.227c0.021-9.817,0.014-19.637,0.014-29.455c0-0.255,0-0.51,0-0.894
		c0.376,0.203,0.647,0.343,0.911,0.495c7.385,4.263,14.77,8.525,22.155,12.788c1.132,0.653,2.274,1.288,3.384,1.976
		c0.243,0.15,0.52,0.489,0.524,0.748c0.037,2.332,0.018,4.664,0.011,6.996c0,0.07-0.042,0.141-0.088,0.273
		C22.565,41.09,15.885,37.231,9.132,33.331z"/>
	<path opacity="0.45" fill-rule="evenodd" clip-rule="evenodd" fill="#0973F0" d="M43.975,62.561c0-7.884,0-15.559,0-23.39
		c-1.127,0.651-2.157,1.207-3.136,1.842c-0.183,0.119-0.229,0.55-0.229,0.837c-0.013,7.244-0.022,14.489,0.006,21.733
		c0.002,0.696-0.198,1.069-0.811,1.403c-1.951,1.072-3.864,2.214-5.886,3.384c-0.025-0.309-0.058-0.524-0.058-0.739
		c-0.002-9.896,0-19.793-0.012-29.688c-0.001-0.495,0.108-0.8,0.571-1.065c8.574-4.929,17.135-9.876,25.7-14.821
		c0.195-0.111,0.405-0.201,0.73-0.362c0,0.391,0,0.671,0,0.949c0,9.213,0.002,18.427,0,27.642c0,0.339-0.003,0.606,0.003,0.929
		c0.033,1.373-0.296,1.869-1.299,2.387c-1.584,0.813-3.096,1.759-4.643,2.645c-0.219,0.126-0.448,0.233-0.768,0.396
		c0-7.786,0-15.463,0-23.35c-1.184,0.689-2.246,1.278-3.264,1.937c-0.16,0.102-0.156,0.523-0.156,0.798
		c-0.007,4.776-0.007,9.556-0.007,14.331c0,2.569,0.007,5.136-0.011,7.701c-0.002,0.251-0.086,0.632-0.262,0.739
		C48.359,60.042,46.248,61.247,43.975,62.561z"/>
	<path fill-rule="evenodd" clip-rule="evenodd" fill="#0B3E7A" d="M32.861,34.045c-0.719,0.696-1.093,0.628-2.163,0.011
		C22.14,29.113,13.58,24.174,5.022,19.229c-0.449-0.258-0.893-0.523-1.474-0.868c0.32-0.211,0.543-0.376,0.784-0.517
		C13.151,12.75,21.972,7.66,30.781,2.552c0.511-0.296,0.892-0.33,1.42-0.021c8.858,5.134,17.728,10.248,26.596,15.368
		c0.188,0.108,0.364,0.237,0.648,0.423c-0.27,0.18-0.472,0.337-0.691,0.465C50.342,23.65,42.4,28.354,33.984,33.213
		C33.306,33.706,33.366,33.672,32.861,34.045z M17.313,18.329c0.378,0.242,0.579,0.38,0.79,0.502
		c4.221,2.436,8.449,4.862,12.66,7.32c0.538,0.315,0.93,0.337,1.483,0.014c4.207-2.461,8.437-4.887,12.657-7.325
		c0.229-0.131,0.438-0.291,0.736-0.493c-0.246-0.181-0.406-0.321-0.583-0.425c-4.338-2.51-8.682-5.007-13.011-7.533
		c-0.465-0.273-0.792-0.152-1.197,0.083c-4.192,2.433-8.395,4.853-12.59,7.278C17.982,17.909,17.714,18.082,17.313,18.329z"/>
</g>
</svg>
